<?xml version="1.0" encoding="utf-8"?>
<!-- Generator: Adobe Illustrator 23.0.1, SVG Export Plug-In . SVG Version: 6.00 Build 0)  -->
<svg version="1.1" id="Layer_1" xmlns="http://www.w3.org/2000/svg" xmlns:xlink="http://www.w3.org/1999/xlink" x="0px" y="0px"
	 viewBox="0 0 716.5 288" style="enable-background:new 0 0 716.5 288;" xml:space="preserve">
<style type="text/css">
	.st0{fill:#BBE5ED;}
	.st1{fill:#74B9FF;}
	.st2{fill:#FFEAA7;}
	.st3{fill:#FF7675;}
	.st4{fill:#FD79A8;}
	.st5{fill:#00CEC9;}
</style>
<path class="st0" d="M175.19,109.24H21.37C9.62,109.24,0,99.62,0,87.87v0C0,76.12,9.62,66.5,21.37,66.5h153.82
	c11.75,0,21.37,9.62,21.37,21.37v0C196.56,99.62,186.94,109.24,175.19,109.24z"/>
<path class="st1" d="M243.32,109.24L243.32,109.24c-11.75,0-21.37-9.62-21.37-21.37v0c0-11.75,9.62-21.37,21.37-21.37h0
	c11.75,0,21.37,9.62,21.37,21.37v0C264.69,99.62,255.07,109.24,243.32,109.24z"/>
<path class="st2" d="M243.32,165.37L243.32,165.37c-11.75,0-21.37-9.62-21.37-21.37v0c0-11.75,9.62-21.37,21.37-21.37h0
	c11.75,0,21.37,9.62,21.37,21.37v0C264.69,155.75,255.07,165.37,243.32,165.37z"/>
<path class="st3" d="M397.14,109.24h-76.91c-11.75,0-21.37-9.62-21.37-21.37v0c0-11.75,9.62-21.37,21.37-21.37h76.91
	c11.75,0,21.37,9.62,21.37,21.37v0C418.51,99.62,408.89,109.24,397.14,109.24z"/>
<path class="st4" d="M695.13,163.09h-305.9c-11.75,0-21.37-9.62-21.37-21.37v0c0-11.75,9.62-21.37,21.37-21.37h305.9
	c11.75,0,21.37,9.62,21.37,21.37v0C716.5,153.47,706.89,163.09,695.13,163.09z"/>
<path class="st5" d="M320.23,163.09L320.23,163.09c-11.75,0-21.37-9.62-21.37-21.37v0c0-11.75,9.62-21.37,21.37-21.37h0
	c11.75,0,21.37,9.62,21.37,21.37v0C341.6,153.47,331.98,163.09,320.23,163.09z"/>
<path class="st3" d="M619.1,221.5H465.27c-11.75,0-21.37-9.62-21.37-21.37v0c0-11.75,9.62-21.37,21.37-21.37H619.1
	c11.75,0,21.37,9.62,21.37,21.37v0C640.46,211.88,630.85,221.5,619.1,221.5z"/>
<path class="st2" d="M397.14,221.5h-76.91c-11.75,0-21.37-9.62-21.37-21.37v0c0-11.75,9.62-21.37,21.37-21.37h76.91
	c11.75,0,21.37,9.62,21.37,21.37v0C418.51,211.88,408.89,221.5,397.14,221.5z"/>
<path class="st2" d="M83.01,165.37H21.37C9.62,165.37,0,155.75,0,144v0c0-11.75,9.62-21.37,21.37-21.37h61.64
	c11.75,0,21.37,9.62,21.37,21.37v0C104.38,155.75,94.76,165.37,83.01,165.37z"/>
<path class="st0" d="M175.19,221.5h-49.44c-11.75,0-21.37-9.62-21.37-21.37v0c0-11.75,9.62-21.37,21.37-21.37h49.44
	c11.75,0,21.37,9.62,21.37,21.37v0C196.56,211.88,186.94,221.5,175.19,221.5z"/>
<path class="st5" d="M577.18,109.24h-69.98c-11.75,0-21.37-9.62-21.37-21.37v0c0-11.75,9.62-21.37,21.37-21.37h69.98
	c11.75,0,21.37,9.62,21.37,21.37v0C598.54,99.62,588.93,109.24,577.18,109.24z"/>
</svg>
