<?xml version="1.0" encoding="utf-8"?>
<!-- Generator: Adobe Illustrator 23.0.1, SVG Export Plug-In . SVG Version: 6.00 Build 0)  -->
<svg version="1.1" id="Layer_1" xmlns="http://www.w3.org/2000/svg" xmlns:xlink="http://www.w3.org/1999/xlink" x="0px" y="0px"
	 viewBox="0 0 724.97 171.57" style="enable-background:new 0 0 724.97 171.57;" xml:space="preserve">
<style type="text/css">
	.st0{fill:#BBE5ED;}
	.st1{fill:#74B9FF;}
	.st2{fill:#FFEAA7;}
	.st3{fill:#FF7675;}
	.st4{fill:#FD79A8;}
	.st5{fill:#00CEC9;}
	.st6{fill:none;stroke:#4894FF;stroke-miterlimit:10;}
</style>
<path class="st0" d="M183.66,54.71H29.84c-11.75,0-21.37-9.62-21.37-21.37v0c0-11.75,9.62-21.37,21.37-21.37h153.82
	c11.75,0,21.37,9.62,21.37,21.37v0C205.03,45.09,195.41,54.71,183.66,54.71z"/>
<path class="st1" d="M251.79,54.71L251.79,54.71c-11.75,0-21.37-9.62-21.37-21.37v0c0-11.75,9.62-21.37,21.37-21.37h0
	c11.75,0,21.37,9.62,21.37,21.37v0C273.16,45.09,263.54,54.71,251.79,54.71z"/>
<path class="st2" d="M251.79,110.84L251.79,110.84c-11.75,0-21.37-9.62-21.37-21.37v0c0-11.75,9.62-21.37,21.37-21.37h0
	c11.75,0,21.37,9.62,21.37,21.37v0C273.16,101.22,263.54,110.84,251.79,110.84z"/>
<path class="st3" d="M405.61,54.71H328.7c-11.75,0-21.37-9.62-21.37-21.37v0c0-11.75,9.62-21.37,21.37-21.37h76.91
	c11.75,0,21.37,9.62,21.37,21.37v0C426.98,45.09,417.37,54.71,405.61,54.71z"/>
<path class="st4" d="M703.6,108.55h-305.9c-11.75,0-21.37-9.62-21.37-21.37v0c0-11.75,9.62-21.37,21.37-21.37h305.9
	c11.75,0,21.37,9.62,21.37,21.37v0C724.97,98.94,715.36,108.55,703.6,108.55z"/>
<path class="st5" d="M328.7,108.55L328.7,108.55c-11.75,0-21.37-9.62-21.37-21.37v0c0-11.75,9.62-21.37,21.37-21.37h0
	c11.75,0,21.37,9.62,21.37,21.37v0C350.07,98.94,340.45,108.55,328.7,108.55z"/>
<path class="st3" d="M627.57,166.96H473.75c-11.75,0-21.37-9.62-21.37-21.37v0c0-11.75,9.62-21.37,21.37-21.37h153.82
	c11.75,0,21.37,9.62,21.37,21.37v0C648.93,157.35,639.32,166.96,627.57,166.96z"/>
<path class="st2" d="M405.61,166.96H328.7c-11.75,0-21.37-9.62-21.37-21.37v0c0-11.75,9.62-21.37,21.37-21.37h76.91
	c11.75,0,21.37,9.62,21.37,21.37v0C426.98,157.35,417.37,166.96,405.61,166.96z"/>
<path class="st2" d="M91.48,110.84H29.84c-11.75,0-21.37-9.62-21.37-21.37v0c0-11.75,9.62-21.37,21.37-21.37h61.64
	c11.75,0,21.37,9.62,21.37,21.37v0C112.85,101.22,103.24,110.84,91.48,110.84z"/>
<path class="st0" d="M183.66,166.96h-49.44c-11.75,0-21.37-9.62-21.37-21.37v0c0-11.75,9.62-21.37,21.37-21.37h49.44
	c11.75,0,21.37,9.62,21.37,21.37v0C205.03,157.35,195.41,166.96,183.66,166.96z"/>
<path class="st5" d="M585.65,54.71h-69.98c-11.75,0-21.37-9.62-21.37-21.37v0c0-11.75,9.62-21.37,21.37-21.37h69.98
	c11.75,0,21.37,9.62,21.37,21.37v0C607.01,45.09,597.4,54.71,585.65,54.71z"/>
<path class="st6" d="M182.42,49.35H28.6c-11.75,0-21.37-9.62-21.37-21.37v0c0-11.75,9.62-21.37,21.37-21.37h153.82
	c11.75,0,21.37,9.62,21.37,21.37v0C203.79,39.73,194.18,49.35,182.42,49.35z"/>
<path class="st6" d="M250.56,49.35L250.56,49.35c-11.75,0-21.37-9.62-21.37-21.37v0c0-11.75,9.62-21.37,21.37-21.37h0
	c11.75,0,21.37,9.62,21.37,21.37v0C271.92,39.73,262.31,49.35,250.56,49.35z"/>
<path class="st6" d="M250.56,105.47L250.56,105.47c-11.75,0-21.37-9.62-21.37-21.37v0c0-11.75,9.62-21.37,21.37-21.37h0
	c11.75,0,21.37,9.62,21.37,21.37v0C271.92,95.86,262.31,105.47,250.56,105.47z"/>
<path class="st6" d="M404.38,49.35h-76.91c-11.75,0-21.37-9.62-21.37-21.37v0c0-11.75,9.62-21.37,21.37-21.37h76.91
	c11.75,0,21.37,9.62,21.37,21.37v0C425.74,39.73,416.13,49.35,404.38,49.35z"/>
<path class="st6" d="M702.37,103.19h-305.9c-11.75,0-21.37-9.62-21.37-21.37v0c0-11.75,9.62-21.37,21.37-21.37h305.9
	c11.75,0,21.37,9.62,21.37,21.37v0C723.74,93.58,714.12,103.19,702.37,103.19z"/>
<path class="st6" d="M327.47,103.19L327.47,103.19c-11.75,0-21.37-9.62-21.37-21.37v0c0-11.75,9.62-21.37,21.37-21.37h0
	c11.75,0,21.37,9.62,21.37,21.37v0C348.83,93.58,339.22,103.19,327.47,103.19z"/>
<path class="st6" d="M626.33,161.6H472.51c-11.75,0-21.37-9.62-21.37-21.37v0c0-11.75,9.62-21.37,21.37-21.37h153.82
	c11.75,0,21.37,9.62,21.37,21.37v0C647.7,151.99,638.08,161.6,626.33,161.6z"/>
<path class="st6" d="M404.38,161.6h-76.91c-11.75,0-21.37-9.62-21.37-21.37v0c0-11.75,9.62-21.37,21.37-21.37h76.91
	c11.75,0,21.37,9.62,21.37,21.37v0C425.74,151.99,416.13,161.6,404.38,161.6z"/>
<path class="st6" d="M90.25,105.47H28.6c-11.75,0-21.37-9.62-21.37-21.37v0c0-11.75,9.62-21.37,21.37-21.37h61.64
	c11.75,0,21.37,9.62,21.37,21.37v0C111.62,95.86,102,105.47,90.25,105.47z"/>
<path class="st6" d="M182.42,161.6h-49.44c-11.75,0-21.37-9.62-21.37-21.37v0c0-11.75,9.62-21.37,21.37-21.37h49.44
	c11.75,0,21.37,9.62,21.37,21.37v0C203.79,151.99,194.18,161.6,182.42,161.6z"/>
<path class="st6" d="M584.41,49.35h-69.98c-11.75,0-21.37-9.62-21.37-21.37v0c0-11.75,9.62-21.37,21.37-21.37h69.98
	c11.75,0,21.37,9.62,21.37,21.37v0C605.78,39.73,596.16,49.35,584.41,49.35z"/>
</svg>
