<?xml version="1.0" encoding="utf-8"?>
<!-- Generator: Adobe Illustrator 23.0.1, SVG Export Plug-In . SVG Version: 6.00 Build 0)  -->
<svg version="1.1" id="a0b12775-6e5f-4473-9cb3-a305020561f5"
	 xmlns="http://www.w3.org/2000/svg" xmlns:xlink="http://www.w3.org/1999/xlink" x="0px" y="0px" viewBox="0 0 925.25 687.32"
	 style="enable-background:new 0 0 925.25 687.32;" xml:space="preserve">
<style type="text/css">
	.st0{fill:#365B60;}
	.st1{fill:#F2F2F2;}
	.st2{fill:#BBE5ED;}
	.st3{fill:#FFFFFF;}
	.st4{fill:#3F3D56;}
	.st5{fill:#01383F;}
	.st6{fill:#2F2E41;}
	.st7{fill:#FFB8B8;}
	.st8{opacity:0.1;enable-background:new    ;}
	.st9{fill:#D0CDE1;}
	.st10{fill:#A0616A;}
	.st11{opacity:0.1;fill:#595863;enable-background:new    ;}
	.st12{fill:#BFBCCB;}
</style>
<title>online_cv</title>
<rect x="68.94" y="48.33" class="st0" width="799.81" height="511.73"/>
<rect x="485.9" y="140.72" class="st1" width="360.1" height="418.86"/>
<path class="st0" d="M36.67,531.42c10.95,20.3,34.17,29.01,34.17,29.01s5.48-24.2-5.46-44.49S31.2,486.93,31.2,486.93
	S25.72,511.12,36.67,531.42z"/>
<path class="st2" d="M44.19,524.74c19.76,11.89,27.37,35.5,27.37,35.5s-24.43,4.34-44.19-7.55S0,517.19,0,517.19
	S24.43,512.85,44.19,524.74z"/>
<rect x="607.7" y="179.7" class="st3" width="218.4" height="8.81"/>
<rect x="607.7" y="199.07" class="st3" width="218.4" height="8.81"/>
<rect x="607.7" y="218.45" class="st3" width="73.98" height="8.81"/>
<rect x="159.22" y="444.09" class="st3" width="218.4" height="8.81"/>
<rect x="159.22" y="463.46" class="st3" width="218.4" height="8.81"/>
<rect x="159.22" y="482.84" class="st3" width="73.98" height="8.81"/>
<rect x="556.53" y="287.73" class="st3" width="218.4" height="8.81"/>
<rect x="556.53" y="307.1" class="st3" width="218.4" height="8.81"/>
<rect x="556.53" y="326.06" class="st3" width="218.4" height="8.81"/>
<rect x="556.53" y="345.01" class="st3" width="218.4" height="8.81"/>
<rect x="556.53" y="363.96" class="st3" width="218.4" height="8.81"/>
<rect x="556.53" y="382.92" class="st3" width="218.4" height="8.81"/>
<rect x="556.53" y="401.87" class="st3" width="218.4" height="8.81"/>
<rect x="556.53" y="420.82" class="st3" width="218.4" height="8.81"/>
<rect x="556.53" y="439.77" class="st3" width="218.4" height="8.81"/>
<rect x="556.53" y="458.73" class="st3" width="218.4" height="8.81"/>
<rect x="556.53" y="477.68" class="st3" width="218.4" height="8.81"/>
<path class="st2" d="M348,304.06c0.03,24.03-10.83,46.78-29.54,61.87c-3.42,2.77-7.06,5.26-10.89,7.42
	c-2.31,1.31-4.69,2.51-7.13,3.57c-8.07,3.56-16.69,5.74-25.48,6.45c-2.16,0.18-4.34,0.27-6.55,0.27c-4.36,0-8.72-0.35-13.02-1.07
	c-1.52-0.24-3.01-0.53-4.49-0.87c-2.58-0.57-5.14-1.28-7.65-2.12c-10.32-3.44-19.83-8.97-27.93-16.24
	c-2.09-1.85-4.06-3.82-5.92-5.89c-29.48-32.59-26.96-82.92,5.64-112.4s82.92-26.96,112.4,5.64C340.68,265.31,348,284.33,348,304.06z
	"/>
<path class="st2" d="M584.76,215.28c0.11,25.47-14.99,34.43-33.67,34.51c-0.43,0-0.87,0-1.3-0.01c-0.87-0.01-1.72-0.05-2.57-0.11
	c-16.86-1.12-30-10.41-30.11-34.1c-0.11-24.51,31.09-55.59,33.43-57.89l0,0c0.09-0.09,0.13-0.13,0.13-0.13
	S584.65,189.81,584.76,215.28z"/>
<path class="st4" d="M549.85,245.91l12.29-17.34l-12.32,19.24l-0.02,1.98c-0.87-0.01-1.72-0.05-2.57-0.11l1.22-25.49l-0.01-0.2
	l0.02-0.04l0.12-2.41l-12.52-19.17l12.55,17.37l0.03,0.51l0.92-19.26l-10.73-19.82l10.85,16.44l0.87-39.92l0-0.13l0,0.13
	l-0.03,31.48l10.54-12.53l-10.57,15.24l-0.2,17.24l9.82-16.59l-9.85,19.12l-0.11,9.59l14.26-23.09l-14.3,26.44L549.85,245.91z"/>
<path class="st5" d="M868.28,272.45c-73.27,0-132.67,59.4-132.67,132.67v0c0,21.46-17.4,38.85-38.85,38.85c0,0,0,0,0,0h-64.44
	c-63.85,0-115.61,51.76-115.61,115.61l0,0v0h351.57L868.28,272.45L868.28,272.45z"/>
<rect x="459.84" y="48.33" class="st6" width="17.06" height="511.73"/>
<path class="st2" d="M303.01,40.75V27.48C303,12.3,290.69,0,275.52,0.01c-15.17,0.01-27.46,12.3-27.47,27.47v13.27h-52.12v29.38
	h159.2V40.75H303.01z M275.53,7.58c8.9,0,16.11,7.21,16.11,16.11s-7.21,16.11-16.11,16.11c-8.9,0-16.11-7.21-16.11-16.11v0
	C259.42,14.79,266.63,7.58,275.53,7.58L275.53,7.58L275.53,7.58z"/>
<path class="st7" d="M282.55,298.81c0,0-7.92,22.53-3.04,26s-16.44,31.77-16.44,31.77l-25.57-6.93l14-23.68
	c0,0,1.83-23.68,1.83-27.15S282.55,298.81,282.55,298.81z"/>
<path class="st8" d="M282.55,298.81c0,0-7.92,22.53-3.04,26s-16.44,31.77-16.44,31.77l-25.57-6.93l14-23.68
	c0,0,1.83-23.68,1.83-27.15S282.55,298.81,282.55,298.81z"/>
<circle class="st7" cx="266.38" cy="294.77" r="20.8"/>
<path class="st9" d="M250.91,381.7c-2.58-0.57-5.14-1.28-7.65-2.12l3.98-27.29l1.23-8.42l6.31,2.37c0.85,0.31,1.82,0.68,2.93,1.09
	c1.71,0.67,3.63,0.6,5.29-0.19c6.1-2.8,9.73-13.67,9.73-13.67s0.25,3.05,0.57,8.22c0.58,9.07,1.41,24.67,1.67,41.7
	c-2.16,0.18-4.34,0.27-6.55,0.27c-4.36,0-8.72-0.35-13.02-1.07C253.88,382.34,252.39,382.04,250.91,381.7z"/>
<path class="st9" d="M256.55,330.01l-1.77,16.23l-0.86,7.86l-3.01,27.6c-2.58-0.57-5.14-1.28-7.65-2.12
	c-10.32-3.44-19.83-8.97-27.93-16.24l-3.84-13.69c0.02-0.82,0.1-1.63,0.25-2.44c0-0.01,0-0.02,0.01-0.03
	c0.11-0.72,0.27-1.43,0.47-2.12c0.01-0.01,0.01-0.02,0.01-0.03c0.68-2.61,2.02-5,3.89-6.94c4.62-4.62,35.23-19.07,35.23-19.07
	l0.58,1.21L256.55,330.01z"/>
<path class="st6" d="M265.93,265.37c4.61-0.16,9.54-0.25,13.43,2.24c1.79,1.25,3.36,2.78,4.64,4.54c3.79,4.79,7.06,10.81,5.65,16.75
	l-1.63-0.64c0,1.59,0.35,3.15,1.03,4.58c-0.23-0.67-1,0.41-0.79,1.09l1.8,5.9c-2.93-0.9-6.04,0.74-6.95,3.67
	c-0.06,0.18-0.1,0.37-0.14,0.55c-0.21-6.86-0.92-14.72-6.48-18.73c-2.8-2.02-6.35-2.64-9.77-3.19c-3.15-0.51-6.45-0.99-9.47,0.05
	s-5.59,4.12-4.9,7.24c-1.48-0.33-3,0.41-3.64,1.79c-0.58,1.36-0.84,2.83-0.74,4.31c-1.48,1.05-3.17-1.03-3.78-2.75
	c-1.42-4.02-2.68-8.3-1.92-12.49s4.18-8.2,8.45-8.22c-0.52-0.57-0.79-1.32-0.77-2.08l3.51-0.3c-0.89-0.13-1.71-0.56-2.32-1.22
	C252.56,270.02,263.65,265.46,265.93,265.37z"/>
<path class="st9" d="M314.32,345.03c-0.54,4.33-3.63,16.56-6.75,28.33c-2.31,1.31-4.69,2.51-7.13,3.57
	c-8.07,3.56-16.69,5.74-25.48,6.45c-2.16,0.18-4.34,0.27-6.55,0.27c-4.36,0-8.72-0.35-13.02-1.07c1.61-6.22,3.78-16.46,5.81-26.5
	c0.62-3.03,1.22-6.06,1.79-8.94c2.23-11.35,3.95-20.6,3.95-20.6s6.92-6.79,11.02-8.36c0.56-0.25,1.17-0.35,1.77-0.29
	c3.38,0.56,8.01,8.65,8.01,8.65s20.75,6.92,25.61,14.77C314.09,342.4,314.44,343.71,314.32,345.03z"/>
<path class="st9" d="M226.51,345.03l-1.21,25.93c-3.52-2.27-6.85-4.82-9.97-7.62c-2.09-1.85-4.06-3.82-5.92-5.89
	c1-4.37,1.83-8.05,2.33-10.23c0-0.01,0-0.02,0.01-0.03c0.27-1.21,0.44-1.96,0.47-2.12c0.01-0.01,0.01-0.02,0.01-0.03H226.51z"/>
<path class="st9" d="M318.46,365.93c-3.42,2.77-7.06,5.26-10.89,7.42c-2.31,1.31-4.69,2.51-7.13,3.57l-2.3-13.42l2.31-25.42
	l12.9,3.22l0.97,0.25L318.46,365.93z"/>
<path class="st10" d="M865.25,410.5c0,0-9,44,6,40s9-42,9-42L865.25,410.5z"/>
<path class="st9" d="M907.25,228.5h-10c0,0-11,8-10,17s-18,87-18,97s-4,13-4,19s2,10,0,13s-6,21-5,28c0.58,4.65,0.58,9.35,0,14h25
	c0,0,18-61,22-64s6-8,6-11s-2-3,3-7s2-22,2-22l7-18L907.25,228.5z"/>
<path class="st11" d="M907.25,228.5h-10c0,0-11,8-10,17s-18,87-18,97s-4,13-4,19s2,10,0,13s-6,21-5,28c0.58,4.65,0.58,9.35,0,14h25
	c0,0,18-61,22-64s6-8,6-11s-2-3,3-7s2-22,2-22l7-18L907.25,228.5z"/>
<path class="st10" d="M767.25,386c0,0-9,44,6,40s9-42,9-42L767.25,386z"/>
<polygon class="st10" points="770.25,591 764.25,616 786.25,630 792.25,600 "/>
<polygon class="st10" points="874.25,622 863.25,637 876.25,652 894.25,652 894.25,622 "/>
<path class="st6" d="M897.25,639h-6c-2.97-0.6-6.03-0.6-9,0c-6,1-14.14-8.63-14.14-8.63l-7.86,6.63c0,0-16,4-8,23l18,11
	c0,0,9,19,27,16s5-23,5-23L897.25,639z"/>
<path class="st6" d="M770.25,604l-1.52-6.66L755.25,601c0,0-28-18-28,6s22,32,22,32s8-1,8,6s21,18,29,14s8-14,8-14l-2-28l-9,2
	c0,0-17-1-14-5S770.25,604,770.25,604z"/>
<path class="st6" d="M799.25,374c0,0-12,16-12,25s-4,89-4,89s-22,102-16,108s24,15,27,12s24-112,24-112l25-67l23,96c0,0-1,83,3,84
	s6,2,4,6s-5,12-5,12s25,6,30,2s6-101,0-135s1-112,1-112L799.25,374z"/>
<circle class="st10" cx="835.75" cy="150.5" r="30"/>
<path class="st10" d="M826.75,169.5c0,0,4,21,0,27s54,2,54,2s-28-32-25-38S826.75,169.5,826.75,169.5z"/>
<path class="st12" d="M801.25,204c0,0,20-26,45-21c6.75,1.35,12.92,2.7,18.32,3.95c19.05,4.41,34.89,17.99,41.4,36.42
	c1.69,4.78,2.53,9.38,1.78,13.13c-3,15-1.5,133.5-1.5,133.5s-8,3-7,7s8,9,1,9s-113-4-111-7S801.25,204,801.25,204z"/>
<path class="st12" d="M811.25,204h-10c0,0-11,8-10,17s-18,87-18,97s-4,13-4,19s2,10,0,13s-6,21-5,28c0.58,4.65,0.58,9.35,0,14h25
	c0,0,18-61,22-64s6-8,6-11s-2-3,3-7s2-22,2-22l7-18L811.25,204z"/>
<polygon class="st8" points="796.67,377.68 826.75,311.5 811.71,381.89 "/>
<path class="st6" d="M825.28,105.13l0.02-2.48c2.07-0.26,4.16-0.19,6.21,0.22c0.02-1.49-0.29-2.98-0.91-4.33
	c2.06,0.27,4.06,0.87,5.93,1.77l0.69-4.6l17.91,6.28c6.43,2.25,13.22,4.76,17.4,10.15c4.65,6,4.99,14.4,3.2,21.79
	c-1.79,7.38-5.42,14.16-8.13,21.26c-0.99,3.03-2.26,5.96-3.81,8.75c-5.41,8.73-17.64,11.84-27.21,8.13
	c-3.53-1.37-6.87-3.65-8.66-6.99c-0.92-2.07-1.7-4.2-2.34-6.38c-1.66-4.41-4.09-13.63-8.13-16.06c-1.78-1.07-4.49,3.52-6.02,2.12
	c-3.94-3.58-3.97-9.85-2.41-14.94c1.47-5.11,3.31-10.1,5.5-14.94C815.47,112.92,825.29,104.84,825.28,105.13z"/>
</svg>
