<?xml version="1.0" encoding="utf-8"?>
<!-- Generator: Adobe Illustrator 23.0.1, SVG Export Plug-In . SVG Version: 6.00 Build 0)  -->
<svg version="1.1" id="a594ac37-6d44-4297-8862-1cbd9c01c0b7"
	 xmlns="http://www.w3.org/2000/svg" xmlns:xlink="http://www.w3.org/1999/xlink" x="0px" y="0px" viewBox="0 0 1126.19 855"
	 style="enable-background:new 0 0 1126.19 855;" xml:space="preserve">
<style type="text/css">
	.st0{fill:#8EBFDD;}
	.st1{fill:#3F3D56;}
	.st2{opacity:0.1;enable-background:new    ;}
	.st3{fill:#BBE5ED;}
	.st4{fill:#F2F2F2;}
	.st5{fill:#6262DD;}
	.st6{fill:#B399A2;}
	.st7{fill:#2F2E41;}
	.st8{fill:#FBBEBE;}
</style>
<title>code review</title>
<path class="st0" d="M544.86,755.94C302.47,737.49,13.39,549.67,28.11,356.28S322.8-17.14,565.2,1.3s381.93,379.86,367.21,573.25
	C917.69,767.95,787.26,774.38,544.86,755.94z"/>
<ellipse class="st1" cx="565.19" cy="756" rx="506" ry="31"/>
<ellipse class="st2" cx="565.19" cy="755.5" rx="431" ry="20.5"/>
<ellipse class="st1" cx="212.19" cy="836.5" rx="212.19" ry="18.5"/>
<ellipse class="st2" cx="212.19" cy="836.2" rx="180.74" ry="12.23"/>
<rect x="196.19" y="162" class="st3" width="752" height="590"/>
<path class="st4" d="M563.64,242.63H378.12c-1.24,0-2.25-1-2.26-2.24s1-2.25,2.24-2.26c0,0,0.01,0,0.01,0h185.52
	c1.24,0,2.25,1.02,2.24,2.26C565.88,241.62,564.88,242.63,563.64,242.63z"/>
<path class="st4" d="M766.72,267.39H474.93c-1.24,0-2.25-1.01-2.25-2.25s1.01-2.25,2.25-2.25l0,0h291.79c1.24,0,2.25,1.01,2.25,2.25
	S767.96,267.39,766.72,267.39z"/>
<path class="st4" d="M564.54,292.16H379.02c-1.24,0-2.25-1.01-2.25-2.25s1.01-2.25,2.25-2.25h185.52c1.24,0,2.25,1.01,2.25,2.25
	S565.78,292.16,564.54,292.16z"/>
<path class="st4" d="M766.72,292.61H581.2c-1.24,0-2.25-1.01-2.25-2.25s1.01-2.25,2.25-2.25h185.52c1.24,0,2.25,1.01,2.25,2.25
	S767.96,292.61,766.72,292.61z"/>
<path class="st4" d="M564.99,316.93H379.47c-1.24,0-2.25-1.01-2.25-2.25s1.01-2.25,2.25-2.25h185.52c1.24,0,2.25,1.01,2.25,2.25
	S566.23,316.93,564.99,316.93z"/>
<path class="st4" d="M565.44,341.69H379.92c-1.24,0-2.25-1.01-2.25-2.25s1.01-2.25,2.25-2.25h185.52c1.24,0,2.25,1.01,2.25,2.25
	S566.68,341.69,565.44,341.69z"/>
<path class="st4" d="M649.64,243.08h-53.13c-1.24,0-2.25-1.01-2.25-2.25s1.01-2.25,2.25-2.25l0,0h53.13c1.24,0,2.25,1.01,2.25,2.25
	S650.89,243.08,649.64,243.08z"/>
<path class="st4" d="M649.64,316.93h-53.13c-1.24,0-2.25-1.01-2.25-2.25s1.01-2.25,2.25-2.25l0,0h53.13c1.24,0,2.25,1.01,2.25,2.25
	S650.89,316.93,649.64,316.93z"/>
<path class="st4" d="M649.64,341.24h-53.13c-1.24,0-2.25-1-2.26-2.24s1-2.25,2.24-2.26c0,0,0.01,0,0.01,0h53.13
	c1.24,0,2.25,1,2.26,2.24s-1,2.25-2.24,2.26C649.65,341.24,649.65,341.24,649.64,341.24z"/>
<path class="st4" d="M738.8,341.24h-53.13c-1.24,0-2.25-1.02-2.24-2.26c0-1.24,1.01-2.24,2.24-2.24h53.13c1.24,0,2.25,1,2.26,2.24
	s-1,2.25-2.24,2.26C738.81,341.24,738.8,341.24,738.8,341.24z"/>
<path class="st4" d="M430.8,267.39h-53.13c-1.24,0-2.25-1.01-2.25-2.25s1.01-2.25,2.25-2.25l0,0h53.13c1.24,0,2.25,1.01,2.25,2.25
	S432.05,267.39,430.8,267.39z"/>
<path class="st4" d="M563.86,607.36H378.35c-1.24,0-2.25-1.01-2.25-2.25c0-1.24,1.01-2.25,2.25-2.25l0,0h185.52
	c1.24,0,2.25,1.01,2.25,2.25C566.11,606.35,565.11,607.36,563.86,607.36z"/>
<path class="st4" d="M562.96,656.89H377.44c-1.24,0-2.25-1.01-2.25-2.25c0-1.24,1.01-2.25,2.25-2.25l0,0h185.52
	c1.24,0,2.25,1.01,2.25,2.25C565.21,655.88,564.21,656.89,562.96,656.89z"/>
<path class="st4" d="M563.41,681.66H377.9c-1.24,0-2.25-1.01-2.25-2.25c0-1.24,1.01-2.25,2.25-2.25l0,0h185.52
	c1.24,0,2.25,1.01,2.25,2.25C565.66,680.65,564.66,681.66,563.41,681.66z"/>
<path class="st4" d="M642.66,657.34h-53.13c-1.24,0-2.25-1.01-2.25-2.25c0-1.24,1.01-2.25,2.25-2.25h53.13
	c1.24,0,2.25,1.01,2.25,2.25C644.91,656.33,643.91,657.34,642.66,657.34L642.66,657.34z"/>
<path class="st4" d="M642.66,681.66h-53.13c-1.24,0-2.25-1.01-2.25-2.25c0-1.24,1.01-2.25,2.25-2.25h53.13
	c1.24,0,2.25,1.01,2.25,2.25C644.91,680.65,643.91,681.66,642.66,681.66L642.66,681.66z"/>
<path class="st4" d="M731.82,657.34h-53.13c-1.24,0-2.25-1.01-2.25-2.25c0-1.24,1.01-2.25,2.25-2.25h53.13
	c1.24,0,2.25,1.01,2.25,2.25C734.07,656.33,733.06,657.34,731.82,657.34z"/>
<path class="st4" d="M766.94,632.13H475.16c-1.24,0-2.25-1.01-2.25-2.25c0-1.24,1.01-2.25,2.25-2.25h291.79
	c1.24,0,2.25,1.01,2.25,2.25C769.19,631.12,768.19,632.13,766.94,632.13z"/>
<path class="st4" d="M431.03,632.13H377.9c-1.24,0-2.25-1.01-2.25-2.25c0-1.24,1.01-2.25,2.25-2.25l0,0h53.13
	c1.24,0,2.25,1.01,2.25,2.25C433.28,631.12,432.27,632.13,431.03,632.13z"/>
<path class="st4" d="M766.94,706.87H475.16c-1.24,0-2.25-1.01-2.25-2.25c0-1.24,1.01-2.25,2.25-2.25h291.79
	c1.24,0,2.25,1.01,2.25,2.25C769.19,705.87,768.19,706.87,766.94,706.87L766.94,706.87z"/>
<path class="st4" d="M431.03,706.87H377.9c-1.24,0-2.25-1.01-2.25-2.25c0-1.24,1.01-2.25,2.25-2.25l0,0h53.13
	c1.24,0,2.25,1.01,2.25,2.25C433.28,705.87,432.27,706.87,431.03,706.87z"/>
<polygon class="st5" points="519.06,401.13 447.01,472.27 519.06,543.42 535.27,527.21 480.79,472.73 535.72,417.79 "/>
<polygon class="st5" points="625.33,401.13 697.37,472.27 625.33,543.42 609.12,527.21 663.6,472.73 608.67,417.79 "/>
<circle class="st5" cx="216.19" cy="177" r="9"/>
<circle class="st5" cx="240.19" cy="177" r="9"/>
<circle class="st5" cx="264.19" cy="177" r="9"/>
<rect x="196.19" y="192" class="st2" width="752" height="3"/>
<path class="st6" d="M1126.19,607.45c0,63.77-37.91,86.04-84.68,86.04s-84.68-22.27-84.68-86.04s84.68-144.9,84.68-144.9
	S1126.19,543.68,1126.19,607.45z"/>
<polygon class="st1" points="1038.43,683.74 1039.3,630.36 1075.39,564.34 1039.44,621.99 1039.83,597.99 1064.7,550.23 
	1039.93,591.65 1039.93,591.65 1040.63,548.48 1067.27,510.45 1040.74,541.7 1041.18,462.56 1038.43,567.33 1038.65,563 
	1011.57,521.55 1038.22,571.3 1035.69,619.5 1035.62,618.22 1004.4,574.6 1035.52,622.74 1035.21,628.77 1035.15,628.86 
	1035.18,629.36 1028.78,751.65 1037.33,751.65 1038.35,688.48 1069.4,640.46 "/>
<path class="st7" d="M122.62,751.09c-2.6,1.45-5.34,2.62-8.18,3.5c-5.08,1.39-10.51,0.88-15.64,2.06c-2.1,0.48-4.39,1.5-5.05,3.55
	c-0.49,1.5,0.04,3.13,0.55,4.62c5.67,16.62,9.09,34.27,18.13,49.32c3.8,6.32,8.51,12.05,13.99,16.99c2.06,1.85,4.38,3.66,7.14,3.95
	c3.98,0.42,7.55-2.47,7.97-6.45c0.13-1.28-0.07-2.57-0.6-3.74c-0.81-1.8-2.32-3.2-3.29-4.92c-1.05-2.19-1.67-4.56-1.82-6.99
	c-0.89-7.11-1.75-14.54,0.71-21.27c1.65-4.51,4.68-8.36,7.21-12.45s4.62-8.77,4.06-13.54c-0.38-3.26-1.97-6.24-3.65-9.05
	c-1.68-2.82-5-10.41-8.38-11.35C132.26,744.36,125.68,749.52,122.62,751.09z"/>
<path class="st7" d="M215.06,808.5c0.05,1.61-0.17,3.21-0.66,4.75c-1.06,2.79-3.68,4.71-5.04,7.37c-1.88,3.7-1.03,8.17,0.22,12.13
	c0.78,2.48,1.81,5.07,3.91,6.6c1.8,1.11,3.84,1.77,5.95,1.91c18.04,2.5,36.36,1.06,54.56,1.59c3.32,0.1,6.83,0.21,9.73-1.41
	s4.69-5.7,2.72-8.37c-1.77-2.4-5.27-2.38-8.24-2.52c-7.75-0.39-15.13-3.43-20.91-8.61c-1.14-0.97-2.13-2.11-2.93-3.38
	c-0.62-1.12-1.13-2.3-1.53-3.52c-2.55-6.91-5.59-13.63-9.08-20.12c-0.98-1.81-2.09-3.71-3.91-4.68c-1.33-0.61-2.78-0.92-4.24-0.93
	c-4.54-0.29-16.28-1.84-19.79,1.69C212.56,794.27,215.13,804.36,215.06,808.5z"/>
<ellipse transform="matrix(0.0709 -0.9975 0.9975 0.0709 -150.0258 592.3745)" class="st8" cx="242.97" cy="376.72" rx="28.97" ry="28.97"/>
<path class="st8" d="M216.81,400.65c-1.72,4.61-4.65,8.95-8.9,11.43l40.07,8.17c-1.45-5.85-1.65-11.94-0.56-17.87
	c0.4-1.44,0.48-2.94,0.24-4.41c-0.75-2.91-4.03-4.31-6.95-4.97c-7.31-1.67-13.78-2.56-20.58-5.79
	C218.05,390.76,218.34,396.55,216.81,400.65z"/>
<path class="st7" d="M207.57,401.23c8.73-3.95,18.8-3.69,27.31,0.71c5.14,2.71,9.39,6.79,13.57,10.83
	c3.85,3.72,7.96,7.97,8.24,13.32c0.13,2.59-0.68,5.12-1.08,7.68c-1.5,10.86,4.02,21.47,13.78,26.47c3.18,5.3,3.84,11.73,3.89,17.91
	c0.18,23.44-7.21,47.16-1.93,70c1.24,5.36,3.16,10.55,4.23,15.95c1.39,6.99,1.32,14.18,2.04,21.27c0.79,7.68,2.5,15.23,5.11,22.5
	c-1.74,2.77-5.37,3.84-8.64,3.61s-6.33-1.64-9.24-3.14c-14.12-7.23-27.06-16.76-41.69-22.9c-9.68-4.06-19.99-6.59-29.38-11.29
	s-18.12-12.14-20.99-22.24c-1.24-4.37-1.32-8.97-1.39-13.5c-0.29-19.11-0.55-38.44,3.61-57.09c3.67-16.45,10.74-32.19,12.28-48.98
	c0.5-5.46,0.51-11.31,3.57-15.87C195.19,410.02,204.51,408.35,207.57,401.23z"/>
<path class="st7" d="M226.49,377.13c1.71-2.23,5-2.53,7.73-1.87s5.24,2.06,8,2.6c1.27,0.36,2.63,0.17,3.74-0.53
	c0.96-0.95,1.54-2.22,1.62-3.57c0.96-5.74,1.19-11.58,0.67-17.38c-0.14-0.81-0.09-1.65,0.16-2.44c0.68-1.64,2.76-2.03,4.46-2.56
	c5.77-1.95,9.48-7.56,9.01-13.63c-0.04-1.42-0.64-2.76-1.66-3.74c-1.18-0.96-2.82-1.02-4.34-1.03c-7.79-0.06-15.58-0.06-23.37,0.01
	c-2.88,0.02-5.91,0.1-8.41,1.53c-1.85,1.06-3.22,2.77-4.88,4.11c-4.33,3.49-10.18,4.2-15.44,5.99c-2.57,0.73-4.9,2.12-6.77,4.04
	c-1.75,2-2.59,4.97-1.49,7.39c0.56,1.01,1.19,1.98,1.89,2.9c3.1,4.96,1.04,11.4,1.5,17.24c0.58,7.29,11.36,19.11,18.68,20.84
	C229.4,399.81,222.58,381.91,226.49,377.13z"/>
<path class="st7" d="M210.13,696.68c0.75,5.32,1.7,10.66,1.45,16.03c-0.36,7.49-3.06,14.71-3.56,22.2
	c-0.37,5.59,0.49,11.24-0.29,16.79c-0.5,3.55-1.66,6.98-2.37,10.49c-2.3,11.58,0.22,23.59,6.97,33.27c0.49,0.82,1.19,1.5,2.02,1.96
	c0.8,0.3,1.66,0.41,2.51,0.33c8.43-0.17,16.84-0.94,25.17-2.29c0.61-0.03,1.19-0.28,1.62-0.71c0.19-0.29,0.31-0.61,0.35-0.95
	c1.54-7.94-1.98-15.89-2.87-23.93c-0.96-8.58,1.1-17.18,3.15-25.56c0.93-4.14,2.08-8.22,3.47-12.23c0.99-2.7,2.18-5.32,3.04-8.06
	c1.21-4.31,1.95-8.73,2.2-13.2c0.59-7.05,0.91-14.12,0.94-21.2c0.2-6.71-0.36-13.42-1.67-20.01c-1.88-8.34-5.72-16.08-9.54-23.73
	c-2.04,0.49-3.95,1.4-5.62,2.67c-4.91,3.18-10.04,6.02-15.35,8.48c-3.57,1.66-10.52,2.83-12.79,6.29
	c-2.23,3.4-0.79,10.35-0.62,14.11C208.64,683.86,209.24,690.28,210.13,696.68z"/>
<path class="st2" d="M210.13,696.68c0.75,5.32,1.7,10.66,1.45,16.03c-0.36,7.49-3.06,14.71-3.56,22.2
	c-0.37,5.59,0.49,11.24-0.29,16.79c-0.5,3.55-1.66,6.98-2.37,10.49c-2.3,11.58,0.22,23.59,6.97,33.27c0.49,0.82,1.19,1.5,2.02,1.96
	c0.8,0.3,1.66,0.41,2.51,0.33c8.43-0.17,16.84-0.94,25.17-2.29c0.61-0.03,1.19-0.28,1.62-0.71c0.19-0.29,0.31-0.61,0.35-0.95
	c1.54-7.94-1.98-15.89-2.87-23.93c-0.96-8.58,1.1-17.18,3.15-25.56c0.93-4.14,2.08-8.22,3.47-12.23c0.99-2.7,2.18-5.32,3.04-8.06
	c1.21-4.31,1.95-8.73,2.2-13.2c0.59-7.05,0.91-14.12,0.94-21.2c0.2-6.71-0.36-13.42-1.67-20.01c-1.88-8.34-5.72-16.08-9.54-23.73
	c-2.04,0.49-3.95,1.4-5.62,2.67c-4.91,3.18-10.04,6.02-15.35,8.48c-3.57,1.66-10.52,2.83-12.79,6.29
	c-2.23,3.4-0.79,10.35-0.62,14.11C208.64,683.86,209.24,690.28,210.13,696.68z"/>
<path class="st7" d="M170.96,583.02c-3.85,10.36,1.81,21.55,6.72,31.45c12.11,24.39,20.51,50.41,28.87,76.32
	c0.63,1.94,1.25,4.06,0.55,5.97c-0.6,1.36-1.58,2.52-2.82,3.35c-5.77,4.38-13.11,5.94-19.97,8.23c-6.64,2.22-12.99,5.2-18.94,8.88
	c-4.98,3.08-9.64,6.64-14.29,10.2l-14.81,11.31c-0.96,0.65-1.8,1.46-2.48,2.4c-1.43,2.24-0.84,5.17-0.13,7.73
	c1.88,6.78,4.31,13.4,7.25,19.79c0.48,1.4,1.41,2.61,2.63,3.45c2.31,1.24,5.14-0.41,6.91-2.35s3.29-4.36,5.78-5.19
	c2.49-0.83,5.22,0.18,7.82-0.19c4.2-0.59,6.99-4.46,10.01-7.43c12.37-12.13,33.01-11.25,46.61-21.98c1.97-1.76,4.05-3.39,6.23-4.87
	c2.3-1.36,4.91-2.11,7.29-3.31c7.26-3.65,11.82-11.21,14.26-18.96s3.14-15.93,4.9-23.86c0.91-4.1,2.1-8.16,2.51-12.34
	c0.26-3.89,0.18-7.79-0.25-11.67l-4.91-60.72c-0.4-4.94-0.8-9.89-1.58-14.79c-14.58,0.52-29.14,1.11-43.73,1.28
	C193.79,585.87,181.97,586.69,170.96,583.02z"/>
<path class="st7" d="M165.6,597.22c1.98,3.18,6.79,3.11,10.1,1.37s5.89-4.67,9.21-6.4c4.46-2.32,9.75-2.24,14.78-2.09
	c7.96,0.22,16.02,0.46,23.69,2.65c7.92,2.26,15.64,6.6,23.83,5.74c1.43-0.15,2.99-0.56,3.76-1.77c0.45-0.87,0.67-1.85,0.62-2.84
	l0.27-7.16c0.16-1.24-0.03-2.5-0.57-3.63c-0.69-0.94-1.63-1.66-2.72-2.08c-11.66-5.65-24.96-6.7-37.92-7.14
	c-6.58-0.23-13.17-0.32-19.76-0.28c-5.59,0.03-12.3-0.77-17.74,0.72C165.87,576.32,161.9,591.27,165.6,597.22z"/>
<path class="st5" d="M238.84,409.73c-15.28-0.14-29.13-10.22-44.41-10.47c-1.85-0.13-3.7,0.19-5.39,0.93
	c-2.13,1.07-3.53,3.15-5.15,4.9c-4.52,4.89-11.06,7.51-15.7,12.28c-4.35,4.48-6.77,11.15-5.05,17.15s8.2,10.61,14.28,9.17
	c2.45-7.92,7.5-14.79,14.34-19.48c3.56-2.28,7.31-4.25,11.21-5.88c6.87-3.11,14.55-6.28,21.72-3.95c2.64,1,5.14,2.36,7.41,4.04
	l11.95,8.03C242.64,420.95,241.39,414.79,238.84,409.73z"/>
<path class="st5" d="M175.65,438.37c-2.03,2.53,0.89,6.2,0.45,9.41c-0.3,2.14-2.05,3.77-2.79,5.79c-0.76,2.1-0.36,4.43-0.64,6.64
	c-0.29,1.61-0.72,3.19-1.28,4.73c-1.29,4.59-2.19,9.28-2.69,14.03l-2.67,19.98c-0.46,3.01-0.75,6.04-0.85,9.08
	c0.13,2.27-0.02,4.55-0.45,6.79c-0.59,2.18-1.9,4.09-2.79,6.18s-1.29,4.6-0.1,6.52c-3.99,3.32-5.18,9.85-2.39,14.23
	c0.53,0.68,0.95,1.45,1.23,2.27c0.15,1.14-0.03,2.31-0.54,3.34l-2.7,7.21c-0.69,1.84-0.91,4.65,1.01,5.07
	c-1.59,1.66-2.84,3.62-3.65,5.77c-0.8,2.19-0.44,4.64,0.97,6.51c0.67,0.59,1.24,1.28,1.69,2.06c0.26,1.08,0.2,2.21-0.2,3.24
	c-0.82,3.18-0.28,6.56,1.47,9.33c1.84,2.77,5.14,4.18,8.42,3.61c5.41-1.22,10.27-3.15,15.73-2.15c11.75,2.16,23.53,4.32,34.91,7.95
	c12.98,4.15,25.56,10.22,39.13,11.5c0.89,0.18,1.82,0.04,2.62-0.41c0.69-0.66,1.12-1.54,1.21-2.49c1.4-6.55,2.8-13.11,4.19-19.66
	c1.69-7.27,2.98-14.62,3.86-22.03c0.48-4.78,0.61-9.59,0.75-14.39l1.08-38.23c0.51-5.63-0.25-11.31-2.2-16.62l-6.22-19.85
	c-3.55-11.33-11.69-21.37-14.59-32.88c-1.83-7.29-3.19-15.1-8.11-20.78c-7.01-8.09-19.14-9.35-29.76-7.96
	c-4.8,0.63-9.64,1.71-13.79,4.2c-4.8,2.88-8.33,7.41-11.75,11.84C181.4,431.84,178.53,434.78,175.65,438.37z"/>
<path class="st8" d="M200.44,550.82c0.87,3.77,2.71,7.25,3.84,10.96c1.88,6.21,1.72,12.9,3.61,19.11c0.79,2.61,1.93,5.11,2.5,7.77
	c1.32,6.21-0.61,12.64-3,18.52s-5.31,11.68-6.09,17.98c-0.55,4.44,0.24,9.45,3.66,12.33c3.55,2.99,8.71,2.79,13.34,2.39
	c1.66-0.05,3.3-0.39,4.84-1.01c3.54-1.67,5.03-5.86,5.85-9.68c2.77-12.82,1.98-26.11,1.17-39.2l-2.11-34.23
	c-0.41-6.59-0.84-13.32-2.87-19.65c-0.74-2.3-2.03-6.95-4.13-8.42c-2.08-1.46-8.03-1.52-10.61-1.64
	C198.35,525.47,198.48,542.36,200.44,550.82z"/>
<path class="st7" d="M213.85,424.42c-2.47-1.29-5.58-0.74-7.97,0.7c-2.31,1.58-4.33,3.54-5.97,5.8
	c-5.34,6.52-10.99,13.99-10.2,22.38c0.3,3.14,1.5,6.12,2.32,9.17c3.58,13.38-0.38,27.53,0.08,41.37c0.26,8,2,15.87,3.74,23.68
	c0.35,1.59,0.92,3.44,2.46,3.98c1.16,0.4,2.41-0.12,3.56-0.55c8.67-3.2,18.36-1.98,25.96,3.27c2.86-1.53,1.79-6.36,1.15-9.55
	c-1.91-9.46,0.68-19.21,3.83-28.34s6.91-18.23,7.43-27.86c0.59-10.92-3.03-21.57-6.6-31.9c-0.78-2.26-1.63-4.62-3.44-6.18
	c-1.55-1.15-3.32-1.96-5.2-2.38C221.19,426.91,217.35,426.26,213.85,424.42z"/>
</svg>
