<?xml version="1.0" encoding="utf-8"?>
<!-- Generator: Adobe Illustrator 23.0.1, SVG Export Plug-In . SVG Version: 6.00 Build 0)  -->
<svg version="1.1" id="Layer_1" xmlns="http://www.w3.org/2000/svg" xmlns:xlink="http://www.w3.org/1999/xlink" x="0px" y="0px"
	 viewBox="0 0 1090 616" style="enable-background:new 0 0 1090 616;" xml:space="preserve">
<style type="text/css">
	.st0{fill:#8EBFDD;}
	.st1{fill:#BBE5ED;}
</style>
<path class="st0" d="M-10.31,1c0.63,0.11,93.46,18.44,131.73,73.39c30.12,43.25,5.96,70.79,33.25,92.21
	c19.75,15.5,35.01,3.13,110.4,5.02c56.14,1.4,86.8,2.55,116.67,21.95c28.75,18.67,23.21,32.45,48.3,43.28
	c35.51,15.33,52.76-9.63,107.89-3.76c11.44,1.22,48.18,5.54,83.43,29.48c28.04,19.05,29.63,33.18,61.47,48.93
	c16.15,7.99,19.22,6.07,52.06,18.82c14.49,5.62,33.63,13.05,55.2,24.46c25.77,13.63,55.28,29.24,82.17,58.96
	c23.36,25.81,20,34.93,35.75,42.03c26.97,12.14,42.96-11.79,84.68-10.04c38.56,1.62,82.09,24.47,87.19,53.95
	c2,11.52-2.43,20.87-10.66,38.26c-15.39,32.51-37.91,52.53-44.54,57.71c-39.7,31.08-112.17,2.19-185.67-16.31
	c-142.88-35.97-269.5-27.64-336.84-23.21c-103.5,6.81-106.09,22.98-170.62,15.05c-39.44-4.84-61.73-13.74-201.35-43.28
	c-14.14-2.99-39.72-8.29-74.02-10.04c-35.53-1.81-64.92,0.99-84.68,3.76L-9.5,0.5"/>
<path class="st1" d="M-0.31,8c0.63,0.11,93.46,18.44,131.73,73.39c30.12,43.25,5.96,70.79,33.25,92.21
	c19.75,15.5,35.01,3.13,110.4,5.02c56.14,1.4,86.8,2.55,116.67,21.95c28.75,18.67,23.21,32.45,48.3,43.28
	c35.51,15.33,52.76-9.63,107.89-3.76c11.44,1.22,48.18,5.54,83.43,29.48c28.04,19.05,29.63,33.18,61.47,48.93
	c16.15,7.99,19.22,6.07,52.06,18.82c14.49,5.62,33.63,13.05,55.2,24.46c25.77,13.63,55.28,29.24,82.17,58.96
	c23.36,25.81,20,34.93,35.75,42.03c26.97,12.14,42.96-11.79,84.68-10.04c38.56,1.62,82.09,24.47,87.19,53.95
	c2,11.52-2.43,20.87-10.66,38.26c-15.39,32.51-37.91,52.53-44.54,57.71c-39.7,31.08-112.17,2.19-185.67-16.31
	c-142.88-35.97-269.5-27.64-336.84-23.21c-103.5,6.81-106.09,22.98-170.62,15.05c-39.44-4.84-61.73-13.74-201.35-43.28
	c-14.14-2.99-39.72-8.29-74.02-10.04c-35.53-1.81-64.92,0.99-84.68,3.76L0.5,7.5"/>
</svg>
