<?xml version="1.0" encoding="utf-8"?>
<!-- Generator: Adobe Illustrator 23.0.1, SVG Export Plug-In . SVG Version: 6.00 Build 0)  -->
<svg version="1.1" id="e189b3b9-b88e-4ad6-86fc-a3cf637fca9f"
	 xmlns="http://www.w3.org/2000/svg" xmlns:xlink="http://www.w3.org/1999/xlink" x="0px" y="0px" viewBox="0 0 1082.44 449.88"
	 style="enable-background:new 0 0 1082.44 449.88;" xml:space="preserve">
<style type="text/css">
	.st0{fill:#FFB9B9;}
	.st1{fill:#2F2E41;}
	.st2{opacity:0.1;enable-background:new    ;}
	.st3{fill:#247BA0;}
	.st4{fill:#BFBCCB;}
	.st5{fill:#3F3D56;}
	.st6{fill:#BBE5ED;}
	.st7{opacity:0.1;fill:#88B8D1;enable-background:new    ;}
	.st8{fill:#F2F2F2;}
</style>
<title>code_thinking</title>
<polygon class="st0" points="77.59,390.49 52.77,388.84 61.04,426.07 89.17,414.49 "/>
<polygon class="st1" points="305.1,321 247.19,264.74 214.1,290.39 148.74,368.98 156.18,380.57 235.61,326.79 289.38,397.11 
	340.67,371.47 "/>
<polygon class="st2" points="305.1,321 247.19,264.74 214.1,290.39 148.74,368.98 156.18,380.57 235.61,326.79 289.38,397.11 
	340.67,371.47 "/>
<path class="st0" d="M310.06,358.23l-7.45,5.79l-60.39-20.68l-14.06-5.79l-28.13,5.79c0,0,0-23.16,26.47-22.34l27.3,6.62l32.26,2.48
	L310.06,358.23z"/>
<polygon class="st1" points="363.84,419.45 345.64,431.03 324.13,431.03 224.02,393.8 77.59,420.28 73.45,388.84 207.48,330.1 
	324.96,368.98 "/>
<path class="st0" d="M246.36,272.19l-12.41,2.48l-2.7-3.15c-4.38-5.11-5.27-12.34-2.26-18.36l0,0l34.75-45.5
	c0,0,9.93-22.34,25.65-13.24s-13.24,23.99-13.24,23.99l-17.37,27.3l1.65,14.06L246.36,272.19z"/>
<circle class="st0" cx="324.96" cy="186.15" r="32.26"/>
<path class="st0" d="M310.48,209.73l14.89,35.57l35.57-14.89c0,0-11.58-28.13-11.58-28.96S310.48,209.73,310.48,209.73z"/>
<path class="st3" d="M408.44,314.97c0,19.47-3.07,38.82-9.09,57.34l-2.42,7.43l-11.58,52.95L372.94,436l-9.1-11.58l-18.2-13.24
	l-13.24-21.51l-11.35-18.91l-3.54-5.91L305.1,302.8l-47.16-26.47l-15.72-2.48l3.31-9.1l14.06-19.03l14.06-1.65l4.14-3.31l3.31,1.65
	l13.24-7.45l4.14,1.65l24.19,2.25l14.69-3.08l21.13-11.34l8.65,1.41l29.78,24.82C404.54,271.26,408.44,293.03,408.44,314.97z"/>
<path class="st1" d="M60.39,403.31c0,0,7.41-12.56,4.28-14.02c-3.13-1.47-16.42-7.31-16.42-7.31l-19.49-6.46
	c0,0-28.13-41.8-28.74-5.45s20.48,45.09,20.48,45.09s18.82,40.49,29.47,34.04s21.32-28.38,21.32-28.38S52.07,410.48,60.39,403.31z"
	/>
<polygon class="st2" points="399.41,307.76 367.98,328.45 321.05,370.76 317.51,364.85 307.58,315.21 310.06,315.21 335.71,268.05 
	"/>
<polygon class="st3" points="335.71,263.09 310.06,310.25 300.96,310.25 295.17,326.79 281.94,330.1 317.51,368.98 367.98,323.48 
	399.41,302.8 "/>
<path class="st1" d="M299.86,162.16l-3.5,1.35c-2.23-1.51-2.82-4.55-1.3-6.78c0.02-0.03,0.04-0.06,0.06-0.08l-6.46-0.3
	c16.18-21.54,46.76-25.9,68.3-9.72c1.59,1.19,3.1,2.48,4.53,3.85c0.29-1.01,3.5,0.96,4.81,2.96c0.44-1.65,3.45,6.32,4.51,11.95
	c0.49-1.88,2.39,1.15,0.73,4.06c1.05-0.15,1.53,2.53,0.71,4.03c1.15-0.54,0.96,2.67-0.29,4.81c1.64-0.15-12.94,22.48-18.84,35.7
	c-1.71-7.87-3.64-16.16-9.17-22.03c-0.94-1-1.97-1.9-2.99-2.81l-5.55-4.9c-6.46-5.7-12.33-12.74-20.94-14.87
	c-5.91-1.46-9.65-1.79-6.43-8.46c-2.91,1.21-5.63,3.02-8.57,4.15C299.51,164.13,299.92,163.09,299.86,162.16z"/>
<circle class="st0" cx="341.09" cy="189.87" r="5.79"/>
<rect x="178.44" y="59.71" class="st4" width="28" height="28"/>
<path class="st5" d="M223.44,71.71h-34v-34h34V71.71z M190.92,70.23h31.04V39.19h-31.04V70.23z"/>
<rect x="50.03" y="149.56" transform="matrix(0.9616 -0.2746 0.2746 0.9616 -42.4482 23.8669)" class="st4" width="28" height="28"/>
<path class="st5" d="M74.46,192.82l-9.34-32.69l32.69-9.34l9.34,32.69L74.46,192.82z M66.95,161.14l8.52,29.85l29.85-8.52
	l-8.52-29.85L66.95,161.14z"/>
<rect x="59.71" y="13.99" transform="matrix(0.6828 -0.7306 0.7306 0.6828 2.9306 62.7283)" class="st4" width="28" height="28"/>
<path class="st5" d="M54,52l23.22-24.84l24.84,23.22L78.84,75.22L54,52z M77.29,29.25l-21.2,22.68l22.68,21.2l21.2-22.68
	L77.29,29.25z"/>
<path class="st5" d="M1026.23,5.36H766.06V0H648.09v5.36H386.85c-9.72,0-17.6,7.88-17.6,17.6v0v356.25c0,9.72,7.88,17.6,17.6,17.6
	h639.38c9.72,0,17.6-7.88,17.6-17.6V22.96C1043.83,13.24,1035.95,5.36,1026.23,5.36L1026.23,5.36z"/>
<rect x="392.84" y="36.46" class="st6" width="627.39" height="353.91"/>
<circle class="st3" cx="706" cy="20.38" r="6.43"/>
<polygon class="st7" points="840.81,390.38 392.85,390.38 392.85,36.46 "/>
<circle class="st8" cx="491.01" cy="303.59" r="60.31"/>
<path class="st5" d="M504.44,348.91c-41.43,0-75.02-33.59-75.02-75.02c0-41.43,33.59-75.02,75.02-75.02s75.02,33.59,75.02,75.02
	C579.41,315.31,545.85,348.87,504.44,348.91z M504.44,199.86c-40.89,0-74.04,33.15-74.04,74.04c0,40.89,33.15,74.04,74.04,74.04
	c40.89,0,74.04-33.15,74.04-74.04C578.43,233.03,545.31,199.91,504.44,199.86L504.44,199.86z"/>
<rect x="852.39" y="227.33" class="st5" width="58.61" height="12.25"/>
<rect x="781.54" y="131.99" class="st5" width="200.31" height="5.25"/>
<rect x="781.54" y="148.61" class="st5" width="200.31" height="5.25"/>
<rect x="781.54" y="165.23" class="st5" width="200.31" height="5.25"/>
<rect x="781.54" y="181.85" class="st5" width="200.31" height="5.25"/>
<rect x="781.54" y="198.47" class="st5" width="200.31" height="5.25"/>
<rect x="957.36" y="43.64" class="st8" width="24.49" height="24.49"/>
<path class="st5" d="M993.22,79.51h-29.74V49.77h29.74V79.51z M964.77,78.21h27.15V51.06h-27.15L964.77,78.21z"/>
<path class="st5" d="M1061.45,383.94h-61.23v-4.41c0-0.48-0.39-0.87-0.87-0.87h0h-20.99c-0.48,0-0.87,0.39-0.87,0.87v0v4.41h-13.12
	v-4.41c0-0.48-0.39-0.87-0.87-0.87l0,0h-20.99c-0.48,0-0.87,0.39-0.87,0.87l0,0v4.41h-13.12v-4.41c0-0.48-0.39-0.87-0.87-0.87l0,0
	h-20.99c-0.48,0-0.87,0.39-0.87,0.87l0,0v4.41h-13.12v-4.41c0-0.48-0.39-0.87-0.87-0.87l0,0h-20.99c-0.48,0-0.87,0.39-0.87,0.87v0
	v4.41h-13.12v-4.41c0-0.48-0.39-0.87-0.87-0.87l0,0H834.9c-0.48,0-0.87,0.39-0.87,0.87l0,0v4.41H820.9v-4.41
	c0-0.48-0.39-0.87-0.87-0.87l0,0h-20.99c-0.48,0-0.87,0.39-0.87,0.87l0,0v4.41h-13.12v-4.41c0-0.48-0.39-0.87-0.87-0.87l0,0H619.72
	c-0.48,0-0.87,0.39-0.87,0.87l0,0v4.41h-13.12v-4.41c0-0.48-0.39-0.87-0.87-0.87l0,0h-20.99c-0.48,0-0.87,0.39-0.87,0.87l0,0v4.41
	h-13.12v-4.41c0-0.48-0.39-0.87-0.87-0.87h0h-20.99c-0.48,0-0.87,0.39-0.87,0.87l0,0v4.41H534v-4.41c0-0.48-0.39-0.87-0.87-0.87l0,0
	h-20.99c-0.48,0-0.87,0.39-0.87,0.87l0,0v4.41h-13.12v-4.41c0-0.48-0.39-0.87-0.87-0.87l0,0h-20.99c-0.48,0-0.87,0.39-0.87,0.87l0,0
	v4.41h-13.12v-4.41c0-0.48-0.39-0.87-0.87-0.87l0,0h-20.99c-0.48,0-0.87,0.39-0.87,0.87v0v4.41h-13.12v-4.41
	c0-0.48-0.39-0.87-0.87-0.87h0h-20.99c-0.48,0-0.87,0.39-0.87,0.87l0,0v4.41h-40.24c-11.59,0-20.99,9.4-20.99,20.99v9.49
	c0,11.59,9.4,20.99,20.99,20.99h698.01c11.59,0,20.99-9.4,20.99-20.99v-9.49C1082.44,393.34,1073.04,383.94,1061.45,383.94z"/>
</svg>
