<svg id="Layer_1" data-name="Layer 1" xmlns="http://www.w3.org/2000/svg" viewBox="0 0 198.48 194.76"><defs><style>.cls-1{fill:#f2e8dd;}.cls-2{fill:#ece0d1;}.cls-3{fill:#fcede3;}.cls-4{fill:#231308;opacity:0.19;}.cls-5{fill:#dbc1ac;}.cls-6{fill:#967259;}</style></defs><title>coffeelogo</title><circle class="cls-1" cx="97.23" cy="97.23" r="97.23"/><ellipse class="cls-2" cx="99.72" cy="97.97" rx="98.76" ry="96.79"/><circle class="cls-3" cx="97.23" cy="97.23" r="61.97"/><circle class="cls-4" cx="97.23" cy="97.23" r="52.99"/><circle class="cls-5" cx="97.92" cy="97.92" r="52.3"/><polyline class="cls-3" points="128.57 44.44 140.91 29.71 150.22 37.07 139.4 52.51"/><path class="cls-6" d="M52.57,93c2.48,17.75,1.22,21.35,5,28.44A39,39,0,0,0,65,131c4,4.11,14.27,14.5,29.92,15.71,3.52.27,18.92,1.45,26.08-7.71,5.3-6.78,1.46-13.32,7.7-19.55C134.16,114,139,117,143.83,112c6.13-6.38,6.49-20,.59-28.15s-13.75-4.72-22.51-14.22c-7.26-7.87-4-12.53-9.78-17.19-12.78-10.25-39,4.16-48.89,11-7.3,5-10.5,9.27-11.85,13.92C50.3,81.07,51.12,82.6,52.57,93Z"/><circle class="cls-6" cx="68.28" cy="57.04" r="0.44"/><circle class="cls-6" cx="70.17" cy="57.48" r="0.44"/><circle class="cls-6" cx="76.79" cy="51.59" r="0.44"/><circle class="cls-6" cx="77.68" cy="52.9" r="0.44"/><circle class="cls-6" cx="82.71" cy="51.33" r="0.44"/><circle class="cls-6" cx="90.75" cy="48.81" r="0.44"/><circle class="cls-6" cx="88.03" cy="48.87" r="0.44"/><circle class="cls-6" cx="100.65" cy="47.3" r="0.44"/><circle class="cls-6" cx="119.2" cy="58.7" r="0.44"/><circle class="cls-6" cx="123.61" cy="59.15" r="0.44"/><circle class="cls-6" cx="126.57" cy="68.56" r="0.44"/><circle class="cls-6" cx="122.17" cy="65.67" r="0.44"/><circle class="cls-6" cx="126.57" cy="64.59" r="0.44"/><circle class="cls-6" cx="126.13" cy="64.78" r="0.44"/><circle class="cls-6" cx="125.94" cy="63.89" r="0.44"/><circle class="cls-6" cx="127.02" cy="63.3" r="0.44"/><circle class="cls-6" cx="127.02" cy="64.15" r="0.44"/><circle class="cls-6" cx="133.73" cy="63.89" r="0.44"/><circle class="cls-6" cx="127.64" cy="64.15" r="0.44"/><circle class="cls-6" cx="133.47" cy="67.12" r="0.44"/><circle class="cls-6" cx="130.1" cy="63.7" r="0.44"/><circle class="cls-6" cx="130.54" cy="61.55" r="0.44"/><circle class="cls-6" cx="132.7" cy="64.15" r="0.44"/><circle class="cls-6" cx="134.36" cy="68.88" r="0.44"/><circle class="cls-6" cx="135.95" cy="66.23" r="0.44"/><circle class="cls-6" cx="127.46" cy="65.22" r="0.44"/><circle class="cls-6" cx="129.21" cy="69.19" r="0.44"/><ellipse class="cls-6" cx="130.1" cy="65.62" rx="0.44" ry="0.8"/><ellipse class="cls-6" cx="136.73" cy="72.94" rx="0.8" ry="0.44" transform="matrix(0.6, -0.8, 0.8, 0.6, -3.6, 138.67)"/><ellipse class="cls-6" cx="138.81" cy="70.15" rx="0.8" ry="0.44" transform="translate(-16.66 66.02) rotate(-25.29)"/><circle class="cls-6" cx="125.24" cy="65.67" r="0.44"/><circle class="cls-6" cx="123.05" cy="62.85" r="0.44"/><circle class="cls-6" cx="125.05" cy="61.35" r="0.44"/><circle class="cls-6" cx="125.5" cy="57.63" r="0.44"/><circle class="cls-6" cx="118.46" cy="55.56" r="0.44"/><circle class="cls-6" cx="122.02" cy="56" r="0.44"/><circle class="cls-6" cx="116.61" cy="53.59" r="0.44"/><circle class="cls-6" cx="117.2" cy="55.11" r="0.44"/><circle class="cls-6" cx="112.72" cy="51.59" r="0.44"/><circle class="cls-6" cx="75.72" cy="54.15" r="1.07"/><circle class="cls-6" cx="85.57" cy="49.44" r="1.07"/><circle class="cls-6" cx="80.72" cy="51.59" r="1.07"/><ellipse class="cls-6" cx="98.65" cy="47.42" rx="0.73" ry="1.07" transform="translate(-2.67 6.01) rotate(-3.44)"/><ellipse class="cls-6" cx="108.17" cy="48.19" rx="0.73" ry="1.07" transform="translate(-2.7 6.58) rotate(-3.44)"/><ellipse class="cls-6" cx="119.65" cy="54.22" rx="0.73" ry="1.07" transform="translate(-3.04 7.28) rotate(-3.44)"/><ellipse class="cls-6" cx="120.38" cy="57.85" rx="0.73" ry="1.07" transform="translate(-3.26 7.33) rotate(-3.44)"/><ellipse class="cls-6" cx="121.21" cy="60.91" rx="0.73" ry="1.07" transform="translate(-3.44 7.39) rotate(-3.44)"/><ellipse class="cls-6" cx="124.51" cy="59.83" rx="0.73" ry="1.07" transform="translate(-0.93 117.69) rotate(-50.43)"/><ellipse class="cls-6" cx="126.13" cy="58.26" rx="0.73" ry="1.07" transform="translate(0.87 118.37) rotate(-50.43)"/><ellipse class="cls-6" cx="129.46" cy="61.01" rx="0.73" ry="1.07" transform="translate(-0.04 121.93) rotate(-50.43)"/><ellipse class="cls-6" cx="122.61" cy="63.89" rx="0.73" ry="1.07" transform="translate(-3.61 7.48) rotate(-3.44)"/><ellipse class="cls-6" cx="124.79" cy="62.62" rx="0.73" ry="1.07" transform="translate(-3.53 7.61) rotate(-3.44)"/><ellipse class="cls-6" cx="127.91" cy="61.37" rx="0.73" ry="1.07" transform="translate(-3.45 7.79) rotate(-3.44)"/><ellipse class="cls-6" cx="129.36" cy="64.15" rx="0.73" ry="1.07" transform="translate(-3.62 7.88) rotate(-3.44)"/><path class="cls-6" d="M93.17,48.19l.73,0c0,.59-.26,1.09-.66,1.12s-.76-.44-.8-1,.27-1.09.67-1.12a.6.6,0,0,1,.48.23Z"/><path class="cls-6" d="M132.37,69l.73,0c0,.58-.26,1.09-.66,1.11s-.76-.44-.79-1,.26-1.09.66-1.11a.62.62,0,0,1,.48.22Z"/><circle class="cls-6" cx="126.45" cy="62.99" r="0.44"/><circle class="cls-6" cx="129.41" cy="72.4" r="0.44"/><circle class="cls-6" cx="125" cy="69.51" r="0.44"/><circle class="cls-6" cx="129.41" cy="68.43" r="0.44"/><circle class="cls-6" cx="128.97" cy="68.62" r="0.44"/><circle class="cls-6" cx="128.78" cy="67.73" r="0.44"/><circle class="cls-6" cx="129.86" cy="67.14" r="0.44"/><circle class="cls-6" cx="129.86" cy="67.99" r="0.44"/><circle class="cls-6" cx="136.57" cy="67.73" r="0.44"/><circle class="cls-6" cx="130.48" cy="67.99" r="0.44"/><circle class="cls-6" cx="136.31" cy="70.96" r="0.44"/><circle class="cls-6" cx="132.93" cy="67.55" r="0.44"/><circle class="cls-6" cx="133.38" cy="65.39" r="0.44"/><circle class="cls-6" cx="135.54" cy="67.99" r="0.44"/><circle class="cls-6" cx="130.3" cy="69.06" r="0.44"/><ellipse class="cls-6" cx="132.93" cy="69.46" rx="0.44" ry="0.8"/><circle class="cls-6" cx="128.08" cy="69.51" r="0.44"/><circle class="cls-6" cx="125.89" cy="66.69" r="0.44"/><circle class="cls-6" cx="127.89" cy="65.19" r="0.44"/><ellipse class="cls-6" cx="127.35" cy="63.67" rx="0.73" ry="1.07" transform="translate(-2.86 121.27) rotate(-50.43)"/><ellipse class="cls-6" cx="128.97" cy="62.1" rx="0.73" ry="1.07" transform="translate(-1.06 121.95) rotate(-50.43)"/><ellipse class="cls-6" cx="132.3" cy="64.85" rx="0.73" ry="1.07" transform="translate(-1.97 125.51) rotate(-50.43)"/><ellipse class="cls-6" cx="125.45" cy="67.73" rx="0.73" ry="1.07" transform="translate(-3.84 7.65) rotate(-3.44)"/><ellipse class="cls-6" cx="127.63" cy="66.47" rx="0.73" ry="1.07" transform="translate(-3.76 7.78) rotate(-3.44)"/><ellipse class="cls-6" cx="130.74" cy="65.21" rx="0.73" ry="1.07" transform="translate(-3.68 7.97) rotate(-3.44)"/><ellipse class="cls-6" cx="132.2" cy="67.99" rx="0.73" ry="1.07" transform="translate(-3.84 8.06) rotate(-3.44)"/><path class="cls-6" d="M135.21,72.84l.73,0c0,.59-.26,1.09-.66,1.11s-.76-.44-.8-1,.27-1.1.67-1.12a.62.62,0,0,1,.48.22Z"/><circle class="cls-6" cx="127.51" cy="119.9" r="0.44"/><circle class="cls-6" cx="134.19" cy="127.16" r="0.44"/><circle class="cls-6" cx="128.97" cy="126.42" r="0.44"/><circle class="cls-6" cx="132.5" cy="123.57" r="0.44"/><circle class="cls-6" cx="132.18" cy="123.93" r="0.44"/><circle class="cls-6" cx="131.63" cy="123.2" r="0.44"/><circle class="cls-6" cx="132.36" cy="122.21" r="0.44"/><circle class="cls-6" cx="132.72" cy="122.98" r="0.44"/><circle class="cls-6" cx="138.68" cy="119.9" r="0.44"/><circle class="cls-6" cx="133.28" cy="122.72" r="0.44"/><circle class="cls-6" cx="139.82" cy="122.93" r="0.44"/><circle class="cls-6" cx="135.32" cy="121.27" r="0.44"/><circle class="cls-6" cx="134.8" cy="119.14" r="0.44"/><circle class="cls-6" cx="137.86" cy="120.57" r="0.44"/><circle class="cls-6" cx="133.58" cy="123.77" r="0.44"/><ellipse class="cls-6" cx="136.13" cy="123.01" rx="0.44" ry="0.8" transform="translate(-39.34 69.41) rotate(-25.12)"/><circle class="cls-6" cx="131.75" cy="125.11" r="0.44"/><circle class="cls-6" cx="128.58" cy="123.49" r="0.44"/><circle class="cls-6" cx="129.75" cy="121.28" r="0.44"/><ellipse class="cls-6" cx="128.61" cy="120.14" rx="0.73" ry="1.07" transform="translate(-19.83 214.69) rotate(-75.54)"/><ellipse class="cls-6" cx="129.41" cy="118.03" rx="0.73" ry="1.07" transform="translate(-17.19 213.88) rotate(-75.54)"/><ellipse class="cls-6" cx="133.6" cy="119.11" rx="0.73" ry="1.07" transform="translate(-15.09 218.74) rotate(-75.54)"/><ellipse class="cls-6" cx="128.62" cy="124.62" rx="0.73" ry="1.07" transform="translate(-43.93 76.65) rotate(-28.56)"/><ellipse class="cls-6" cx="130.06" cy="122.55" rx="0.73" ry="1.07" transform="translate(-42.76 77.08) rotate(-28.56)"/><ellipse class="cls-6" cx="132.34" cy="120.09" rx="0.73" ry="1.07" transform="translate(-41.31 77.88) rotate(-28.56)"/><ellipse class="cls-6" cx="134.84" cy="121.99" rx="0.73" ry="1.07" transform="translate(-41.91 79.3) rotate(-28.56)"/><path class="cls-6" d="M139.63,125.1l.64-.35c.28.52.22,1.1-.13,1.29s-.87-.07-1.15-.59-.23-1.1.12-1.29a.63.63,0,0,1,.54,0Z"/><circle class="cls-6" cx="126.39" cy="123.31" r="0.44"/><circle class="cls-6" cx="128.88" cy="132.85" r="0.44"/><circle class="cls-6" cx="124.62" cy="129.74" r="0.44"/><circle class="cls-6" cx="129.08" cy="128.89" r="0.44"/><circle class="cls-6" cx="128.63" cy="129.05" r="0.44"/><circle class="cls-6" cx="128.48" cy="128.16" r="0.44"/><circle class="cls-6" cx="129.59" cy="127.62" r="0.44"/><circle class="cls-6" cx="129.54" cy="128.47" r="0.44"/><circle class="cls-6" cx="136.26" cy="128.54" r="0.44"/><circle class="cls-6" cx="130.17" cy="128.5" r="0.44"/><circle class="cls-6" cx="135.85" cy="131.76" r="0.44"/><circle class="cls-6" cx="132.64" cy="128.18" r="0.44"/><circle class="cls-6" cx="133.19" cy="126.05" r="0.44"/><circle class="cls-6" cx="135.22" cy="128.75" r="0.44"/><circle class="cls-6" cx="129.93" cy="129.56" r="0.44"/><ellipse class="cls-6" cx="132.55" cy="130.09" rx="0.8" ry="0.44" transform="translate(-3.95 256.03) rotate(-87.16)"/><circle class="cls-6" cx="127.69" cy="129.9" r="0.44"/><circle class="cls-6" cx="125.65" cy="126.98" r="0.44"/><circle class="cls-6" cx="127.72" cy="125.58" r="0.44"/><ellipse class="cls-6" cx="127.25" cy="124.03" rx="0.73" ry="1.07" transform="translate(-50.15 134.33) rotate(-47.59)"/><ellipse class="cls-6" cx="128.95" cy="122.54" rx="0.73" ry="1.07" transform="translate(-48.5 135.1) rotate(-47.59)"/><ellipse class="cls-6" cx="132.14" cy="125.46" rx="0.73" ry="1.07" transform="translate(-49.61 138.4) rotate(-47.59)"/><ellipse class="cls-6" cx="125.16" cy="127.99" rx="0.73" ry="1.07" transform="matrix(1, -0.01, 0.01, 1, -1.34, 1.33)"/><ellipse class="cls-6" cx="127.4" cy="126.84" rx="0.73" ry="1.07" transform="translate(-1.33 1.35) rotate(-0.6)"/><ellipse class="cls-6" cx="130.57" cy="125.74" rx="0.73" ry="1.07" transform="translate(-1.32 1.38) rotate(-0.6)"/><ellipse class="cls-6" cx="131.89" cy="128.58" rx="0.73" ry="1.07" transform="matrix(1, -0.01, 0.01, 1, -1.35, 1.4)"/><path class="cls-6" d="M134.65,133.58h.73c0,.59-.31,1.08-.71,1.08s-.74-.47-.74-1.06.31-1.08.71-1.08a.61.61,0,0,1,.48.24Z"/><circle class="cls-6" cx="48.59" cy="96.98" r="0.44"/><circle class="cls-6" cx="51.08" cy="106.53" r="0.44"/><circle class="cls-6" cx="46.82" cy="103.42" r="0.44"/><circle class="cls-6" cx="51.28" cy="102.57" r="0.44"/><circle class="cls-6" cx="50.83" cy="102.73" r="0.44"/><circle class="cls-6" cx="50.69" cy="101.83" r="0.44"/><circle class="cls-6" cx="51.79" cy="101.3" r="0.44"/><circle class="cls-6" cx="51.75" cy="102.15" r="0.44"/><circle class="cls-6" cx="58.46" cy="102.22" r="0.44"/><circle class="cls-6" cx="52.37" cy="102.18" r="0.44"/><circle class="cls-6" cx="58.05" cy="105.43" r="0.44"/><circle class="cls-6" cx="54.84" cy="101.85" r="0.44"/><circle class="cls-6" cx="55.39" cy="99.73" r="0.44"/><circle class="cls-6" cx="57.42" cy="102.43" r="0.44"/><circle class="cls-6" cx="52.14" cy="103.24" r="0.44"/><ellipse class="cls-6" cx="54.75" cy="103.77" rx="0.8" ry="0.44" transform="translate(-51.61 153.31) rotate(-87.16)"/><circle class="cls-6" cx="49.89" cy="103.58" r="0.44"/><circle class="cls-6" cx="47.85" cy="100.66" r="0.44"/><circle class="cls-6" cx="49.92" cy="99.25" r="0.44"/><ellipse class="cls-6" cx="49.45" cy="97.71" rx="0.73" ry="1.07" transform="translate(-56.04 68.32) rotate(-47.59)"/><ellipse class="cls-6" cx="51.15" cy="96.22" rx="0.73" ry="1.07" transform="translate(-54.39 69.09) rotate(-47.59)"/><ellipse class="cls-6" cx="54.34" cy="99.14" rx="0.73" ry="1.07" transform="translate(-55.5 72.39) rotate(-47.59)"/><ellipse class="cls-6" cx="47.36" cy="101.67" rx="0.73" ry="1.07" transform="matrix(1, -0.01, 0.01, 1, -1.07, 0.51)"/><ellipse class="cls-6" cx="49.6" cy="100.51" rx="0.73" ry="1.07" transform="translate(-1.06 0.53) rotate(-0.6)"/><ellipse class="cls-6" cx="52.77" cy="99.42" rx="0.73" ry="1.07" transform="translate(-1.05 0.56) rotate(-0.6)"/><ellipse class="cls-6" cx="54.09" cy="102.26" rx="0.73" ry="1.07" transform="matrix(1, -0.01, 0.01, 1, -1.08, 0.58)"/><path class="cls-6" d="M56.85,107.26h.73c0,.59-.31,1.08-.71,1.08s-.74-.48-.74-1.06.31-1.08.71-1.09a.64.64,0,0,1,.48.25Z"/><circle class="cls-6" cx="54.14" cy="109.23" r="0.44"/><circle class="cls-6" cx="53.72" cy="112.44" r="0.44"/><circle class="cls-6" cx="50.52" cy="108.86" r="0.44"/><circle class="cls-6" cx="51.07" cy="106.74" r="0.44"/><circle class="cls-6" cx="53.1" cy="109.44" r="0.44"/><ellipse class="cls-6" cx="50.42" cy="110.78" rx="0.8" ry="0.44" transform="translate(-62.72 155.65) rotate(-87.16)"/><ellipse class="cls-6" cx="50.02" cy="106.14" rx="0.73" ry="1.07" transform="translate(-62.09 71.48) rotate(-47.59)"/><ellipse class="cls-6" cx="48.45" cy="106.42" rx="0.73" ry="1.07" transform="translate(-1.12 0.52) rotate(-0.6)"/><ellipse class="cls-6" cx="49.77" cy="109.27" rx="0.73" ry="1.07" transform="matrix(1, -0.01, 0.01, 1, -1.15, 0.53)"/><path class="cls-6" d="M52.53,114.27h.73c0,.59-.32,1.07-.72,1.08s-.73-.48-.74-1.07.32-1.07.72-1.08a.62.62,0,0,1,.47.25Z"/><circle class="cls-6" cx="57.33" cy="118.84" r="0.44"/><circle class="cls-6" cx="56.91" cy="122.05" r="0.44"/><circle class="cls-6" cx="53.71" cy="118.47" r="0.44"/><circle class="cls-6" cx="54.26" cy="116.35" r="0.44"/><circle class="cls-6" cx="56.29" cy="119.05" r="0.44"/><ellipse class="cls-6" cx="53.61" cy="120.39" rx="0.8" ry="0.44" transform="translate(-69.28 167.98) rotate(-87.16)"/><ellipse class="cls-6" cx="53.21" cy="115.75" rx="0.73" ry="1.07" transform="translate(-68.14 76.97) rotate(-47.59)"/><ellipse class="cls-6" cx="51.64" cy="116.04" rx="0.73" ry="1.07" transform="translate(-1.22 0.55) rotate(-0.6)"/><ellipse class="cls-6" cx="52.96" cy="118.88" rx="0.73" ry="1.07" transform="matrix(1, -0.01, 0.01, 1, -1.25, 0.57)"/><path class="cls-6" d="M55.72,123.88h.73c0,.59-.32,1.08-.72,1.08s-.73-.48-.74-1.07.32-1.07.72-1.08a.62.62,0,0,1,.47.25Z"/><path class="cls-6" d="M131.28,73.83l1.12-.06c0,.2-.49.4-1.1.44s-1.13-.1-1.14-.31.48-.41,1.1-.44a2.74,2.74,0,0,1,.72,0Z"/><path class="cls-6" d="M126.39,71.2l.07-1.07a1.07,1.07,0,0,1,.65,1c0,.59-.26,1.09-.66,1.12s-.75-.44-.79-1a1.3,1.3,0,0,1,.29-.94Z"/></svg>