<?xml version="1.0" encoding="utf-8"?>
<!-- Generator: Adobe Illustrator 23.0.1, SVG Export Plug-In . SVG Version: 6.00 Build 0)  -->
<svg version="1.1" id="daa92041-3bd8-464c-9c92-61b3fade74bd"
	 xmlns="http://www.w3.org/2000/svg" xmlns:xlink="http://www.w3.org/1999/xlink" x="0px" y="0px" viewBox="0 0 798.82 755.15"
	 style="enable-background:new 0 0 798.82 755.15;" xml:space="preserve">
<style type="text/css">
	.st0{fill:none;stroke:#69F0AE;stroke-width:9;stroke-miterlimit:10;}
	.st1{fill:none;stroke:#69F0AE;stroke-width:9;stroke-miterlimit:10;stroke-dasharray:12.04,12.04;}
	.st2{fill:url(#SVGID_1_);}
	.st3{fill:#F6B9AD;}
	.st4{fill:url(#SVGID_2_);}
	.st5{fill:url(#SVGID_3_);}
	.st6{fill:#FFFFFF;}
	.st7{fill:#BBE5ED;}
	.st8{fill:#DBDBDB;}
	.st9{fill:url(#SVGID_4_);}
	.st10{fill:url(#SVGID_5_);}
	.st11{fill:#FF8976;}
	.st12{fill:url(#SVGID_6_);}
	.st13{fill:url(#SVGID_7_);}
	.st14{fill:#8EBFDD;}
	.st15{opacity:0.2;fill:#FFFFFF;enable-background:new    ;}
	.st16{fill:#F5F5F5;}
	.st17{fill:#85B2C9;}
	.st18{opacity:0.2;enable-background:new    ;}
	.st19{fill:url(#SVGID_8_);}
	.st20{fill:url(#SVGID_9_);}
	.st21{fill:url(#SVGID_10_);}
	.st22{fill:url(#SVGID_11_);}
	.st23{fill:url(#SVGID_12_);}
	.st24{fill:#69F0AE;}
	.st25{fill:url(#SVGID_13_);}
	.st26{fill:#87B5CC;}
	.st27{opacity:0.2;fill:#8EBFDD;enable-background:new    ;}
</style>
<title>mail_2</title>
<path class="st0" d="M23.66,448.57c0,0-0.68-2-1.78-5.72"/>
<path class="st1" d="M18.66,431.25c-24.31-93.6-100.1-524.98,659.66-255.68"/>
<path class="st0" d="M684.01,177.57l5.65,2"/>
<linearGradient id="SVGID_1_" gradientUnits="userSpaceOnUse" x1="589.635" y1="-32.67" x2="589.635" y2="256.5298" gradientTransform="matrix(1 0 0 -1 -198.33 685.56)">
	<stop  offset="0" style="stop-color:#808080;stop-opacity:0.25"/>
	<stop  offset="0.54" style="stop-color:#808080;stop-opacity:0.12"/>
	<stop  offset="1" style="stop-color:#808080;stop-opacity:0.1"/>
</linearGradient>
<path class="st2" d="M596.6,510.26c0.01-44.85-36.34-81.22-81.19-81.23c-39.03-0.01-72.54,27.74-79.81,66.09l-249.59-6.77
	l2.74,42.88c0,0-35.59,82.12,151.46,104v83h216.24v-138C581.3,565.68,596.58,539.05,596.6,510.26z"/>
<path class="st3" d="M197.32,533.03c0,0-34.08,78.64,145.05,99.62v79.52h207.09v-210.6l-354.8-9.61L197.32,533.03z"/>
<linearGradient id="SVGID_2_" gradientUnits="userSpaceOnUse" x1="411.3344" y1="462.9522" x2="411.3344" y2="612.2698" gradientTransform="matrix(1 0 0 -1 -198.33 685.56)">
	<stop  offset="0" style="stop-color:#808080;stop-opacity:0.25"/>
	<stop  offset="0.54" style="stop-color:#808080;stop-opacity:0.12"/>
	<stop  offset="1" style="stop-color:#808080;stop-opacity:0.1"/>
</linearGradient>
<path class="st4" d="M300.82,204.86L300.82,204.86c-11.24,17.74-34.7,23.07-52.5,11.93l-111.19-73.27
	c-17.74-11.24-23.07-34.7-11.93-52.5l0,0c11.24-17.71,34.67-23.04,52.46-11.93l111.19,73.27
	C306.6,163.59,311.95,187.05,300.82,204.86z"/>
<path class="st3" d="M294.66,200.85L294.66,200.85c-10.45,16.49-32.25,21.44-48.8,11.09l-103.39-68.11
	c-16.49-10.45-21.44-32.25-11.09-48.8l0,0c10.45-16.49,32.25-21.44,48.8-11.09l103.37,68.12C300.04,162.5,305,184.3,294.66,200.85z"
	/>
<circle class="st3" cx="510.14" cy="512.94" r="77.77"/>
<linearGradient id="SVGID_3_" gradientUnits="userSpaceOnUse" x1="545.51" y1="103.6" x2="545.51" y2="685.56" gradientTransform="matrix(1 0 0 -1 -198.33 685.56)">
	<stop  offset="0" style="stop-color:#808080;stop-opacity:0.25"/>
	<stop  offset="0.54" style="stop-color:#808080;stop-opacity:0.12"/>
	<stop  offset="1" style="stop-color:#808080;stop-opacity:0.1"/>
</linearGradient>
<path class="st5" d="M198.22,0h297.92c6.77,0,12.25,5.48,12.25,12.25v557.46c0,6.77-5.48,12.25-12.25,12.25H198.22
	c-6.77,0-12.25-5.48-12.25-12.25V12.25C185.97,5.48,191.45,0,198.22,0z"/>
<path class="st6" d="M203.97,7.87h286.42c7.53,0,13.64,6.11,13.64,13.64v538.96c0,7.53-6.11,13.64-13.64,13.64H203.97
	c-7.53,0-13.64-6.11-13.64-13.64V21.51C190.33,13.98,196.44,7.87,203.97,7.87z"/>
<path class="st7" d="M425.99,22.06c-1.88,12.41-12.52,21.59-25.07,21.63H292.58c-12.55-0.04-23.19-9.23-25.06-21.63h-57.4
	c-6.58-0.01-11.91,5.32-11.92,11.9c0,0,0,0.01,0,0.01v514c-0.01,6.58,5.32,11.91,11.9,11.92c0,0,0.01,0,0.01,0h274.14
	c6.58,0.01,11.91-5.32,11.92-11.9c0,0,0-0.01,0-0.01v-514c0.01-6.58-5.32-11.91-11.9-11.92c0,0-0.01,0-0.01,0H425.99z"/>
<path class="st8" d="M314.67,28.84h65.91c1.1,0,2,0.9,2,2v0.37c0,1.1-0.9,2-2,2h-65.91c-1.1,0-2-0.9-2-2v-0.37
	C312.67,29.74,313.57,28.84,314.67,28.84z"/>
<circle class="st8" cx="397.43" cy="30.59" r="2.62"/>
<linearGradient id="SVGID_4_" gradientUnits="userSpaceOnUse" x1="725.8766" y1="157.8562" x2="725.8766" y2="435.1045" gradientTransform="matrix(1 0 0 -1 -198.33 685.56)">
	<stop  offset="0" style="stop-color:#808080;stop-opacity:0.25"/>
	<stop  offset="0.54" style="stop-color:#808080;stop-opacity:0.12"/>
	<stop  offset="1" style="stop-color:#808080;stop-opacity:0.1"/>
</linearGradient>
<path class="st9" d="M560.42,526.65L560.42,526.65c-22.57,5.22-38.06-9.5-43.28-32.06l-51.86-192.56
	c-5.16-22.65,8.93-45.21,31.55-50.51l0,0c22.65-5.16,45.21,8.93,50.51,31.55l42.32,197.5C594.88,503.17,582.98,521.43,560.42,526.65
	z"/>
<path class="st3" d="M499.07,261.28L499.07,261.28c19.04-4.4,38.05,7.47,42.45,26.51l47.69,206.39c4.4,19.04-7.47,38.05-26.51,42.45
	l0,0c-19.04,4.4-38.05-7.47-42.45-26.51l-47.69-206.39C468.16,284.68,480.03,265.68,499.07,261.28z"/>
<linearGradient id="SVGID_5_" gradientUnits="userSpaceOnUse" x1="637.92" y1="-69.59" x2="637.92" y2="-0.59" gradientTransform="matrix(1 0 0 -1 -198.33 685.56)">
	<stop  offset="0" style="stop-color:#808080;stop-opacity:0.25"/>
	<stop  offset="0.54" style="stop-color:#808080;stop-opacity:0.12"/>
	<stop  offset="1" style="stop-color:#808080;stop-opacity:0.1"/>
</linearGradient>
<rect x="291.59" y="686.15" class="st10" width="296" height="69"/>
<rect x="299.59" y="694.15" class="st11" width="280" height="54"/>
<linearGradient id="SVGID_6_" gradientUnits="userSpaceOnUse" x1="544.655" y1="411.9899" x2="544.655" y2="552.1287" gradientTransform="matrix(1 0 0 -1 -198.34 685.57)">
	<stop  offset="0" style="stop-color:#000000;stop-opacity:0.12"/>
	<stop  offset="0.55" style="stop-color:#000000;stop-opacity:0.09"/>
	<stop  offset="1" style="stop-color:#000000;stop-opacity:0.02"/>
</linearGradient>
<path class="st12" d="M413.22,182.38l-22.94-17.27l10-13l-16.69-13.1l-10.43,13.22l-23.59-17.75c-1.85-1.39-4.38-1.39-6.23,0
	l-62.53,46.55c-2.37,2-4.59,4.29-4.61,9.53h-0.07l-0.16,71.72l0,0v3.19c-0.01,4.32,3.48,7.83,7.8,7.84h0h3.08l59.29,0.13l62.38,0.14
	c4.32,0.01,7.83-3.48,7.84-7.8c0,0,0,0,0,0l0.17-74.78h0.13C416.66,185.75,415.59,184.38,413.22,182.38z"/>
<linearGradient id="SVGID_7_" gradientUnits="userSpaceOnUse" x1="544.66" y1="418.08" x2="544.66" y2="545.9487" gradientTransform="matrix(1 0 0 -1 -198.34 685.57)">
	<stop  offset="0" style="stop-color:#808080;stop-opacity:0.25"/>
	<stop  offset="0.54" style="stop-color:#808080;stop-opacity:0.12"/>
	<stop  offset="1" style="stop-color:#808080;stop-opacity:0.1"/>
</linearGradient>
<path class="st13" d="M410.5,192.09c0-4.78-1-6-3.14-7.85l-58.07-43.67c-1.69-1.27-4-1.27-5.69,0l-57.05,42.48
	c-2.79,1.99-4.37,5.27-4.2,8.69h-0.06l-0.15,65.44l0,0v2.91c-0.01,3.94,3.18,7.14,7.12,7.15h2.81l54.1,0.12l56.91,0.13
	c3.94,0.01,7.14-3.18,7.15-7.12l0.15-68.23L410.5,192.09z"/>
<path class="st14" d="M283.34,192l125.83,0.29l0,0l-0.16,69.23c-0.01,2.31-1.88,4.18-4.19,4.17l-117-0.27
	c-2.55-0.01-4.61-2.07-4.6-4.62l0.16-68.8l0,0L283.34,192z"/>
<path class="st15" d="M283.34,192l125.83,0.29l0,0l-0.16,69.23c-0.01,2.31-1.88,4.18-4.19,4.17l-117-0.27
	c-2.55-0.01-4.61-2.07-4.6-4.62l0.16-68.8l0,0L283.34,192z"/>
<path class="st16" d="M283.35,191.98l-0.14,63.59c-0.01,5.4,4.35,9.78,9.75,9.79c0,0,0,0,0,0l106.29,0.24"/>
<path class="st6" d="M409.19,192.26l-0.14,63.63c-0.01,5.4-4.39,9.76-9.79,9.75l0,0l-106.29-0.24"/>
<path class="st17" d="M343.59,142.23l-56,41.3c-2.73,1.92-4.29,5.11-4.13,8.45l125.89,0.4c0-4.65-1-5.87-3.08-7.63l-57.05-42.5
	C347.56,140.99,345.26,140.98,343.59,142.23z"/>
<path class="st18" d="M343.59,142.23l-56,41.3c-2.73,1.92-4.29,5.11-4.13,8.45l125.89,0.4c0-4.65-1-5.87-3.08-7.63l-57.05-42.5
	C347.56,140.99,345.26,140.98,343.59,142.23z"/>
<linearGradient id="SVGID_8_" gradientUnits="userSpaceOnUse" x1="551.3545" y1="466.7193" x2="551.3545" y2="541.5439" gradientTransform="matrix(1 2.268926e-03 2.268926e-03 -1 -199.0612 684.8921)">
	<stop  offset="0" style="stop-color:#000000;stop-opacity:0.12"/>
	<stop  offset="0.55" style="stop-color:#000000;stop-opacity:0.09"/>
	<stop  offset="1" style="stop-color:#000000;stop-opacity:0.02"/>
</linearGradient>
<polygon class="st19" points="395.56,156.6 380.33,144.66 343.52,191.28 323.74,175.94 311.35,191.69 340.14,213.68 340.14,213.68 
	347.28,219.41 "/>
<polygon class="st6" points="394.44,156.31 380.64,145.73 344.07,193.42 323.76,177.85 313.17,191.65 340.38,212.49 340.38,212.49 
	347.36,217.72 "/>
<linearGradient id="SVGID_9_" gradientUnits="userSpaceOnUse" x1="396.045" y1="358.1364" x2="396.045" y2="495.1636" gradientTransform="matrix(1 0 0 -1 -198.33 685.56)">
	<stop  offset="0" style="stop-color:#808080;stop-opacity:0.25"/>
	<stop  offset="0.54" style="stop-color:#808080;stop-opacity:0.12"/>
	<stop  offset="1" style="stop-color:#808080;stop-opacity:0.1"/>
</linearGradient>
<path class="st20" d="M276.94,309.81L276.94,309.81c-11.16,17.6-34.44,22.89-52.11,11.84l-94.5-61.53
	c-17.6-11.16-22.89-34.44-11.84-52.11l0,0c11.16-17.6,34.44-22.89,52.11-11.84l94.5,61.53C282.7,268.86,287.99,292.14,276.94,309.81
	z"/>
<path class="st3" d="M271.92,306.57L271.92,306.57c-10.45,16.49-32.25,21.44-48.8,11.09l-88.51-57.63
	c-16.49-10.45-21.44-32.25-11.09-48.8l0,0c10.45-16.49,32.25-21.44,48.8-11.09l88.51,57.63
	C277.32,268.22,282.27,290.02,271.92,306.57z"/>
<linearGradient id="SVGID_10_" gradientUnits="userSpaceOnUse" x1="386.8663" y1="256.5923" x2="386.8663" y2="379.9977" gradientTransform="matrix(1 0 0 -1 -198.33 685.56)">
	<stop  offset="0" style="stop-color:#808080;stop-opacity:0.25"/>
	<stop  offset="0.54" style="stop-color:#808080;stop-opacity:0.12"/>
	<stop  offset="1" style="stop-color:#808080;stop-opacity:0.1"/>
</linearGradient>
<path class="st21" d="M257.66,411.43L257.66,411.43c-11.1,17.53-34.28,22.8-51.87,11.79l-74.58-48.25
	c-17.53-11.1-22.8-34.28-11.79-51.87l0,0c11.1-17.53,34.28-22.8,51.87-11.79l74.57,48.26C263.38,370.67,268.66,393.84,257.66,411.43
	z"/>
<linearGradient id="SVGID_11_" gradientUnits="userSpaceOnUse" x1="382.0483" y1="154.2904" x2="382.0483" y2="263.8009" gradientTransform="matrix(1 0 0 -1 -198.33 685.56)">
	<stop  offset="0" style="stop-color:#808080;stop-opacity:0.25"/>
	<stop  offset="0.54" style="stop-color:#808080;stop-opacity:0.12"/>
	<stop  offset="1" style="stop-color:#808080;stop-opacity:0.1"/>
</linearGradient>
<path class="st22" d="M238.94,513.57L238.94,513.57c-11.2,17.69-34.59,23.01-52.34,11.9l-46.19-33.7
	c-17.69-11.2-23.01-34.59-11.9-52.34l0,0c11.22-17.67,34.6-22.97,52.34-11.86l46.19,33.69
	C244.71,472.46,250.02,495.83,238.94,513.57z"/>
<path class="st3" d="M235.21,511.06L235.21,511.06c-10.45,16.49-32.25,21.44-48.8,11.09l-43.07-31.42
	c-16.49-10.45-21.44-32.25-11.09-48.8l0,0c10.45-16.49,32.25-21.44,48.8-11.09l43.07,31.42
	C240.61,472.71,245.56,494.51,235.21,511.06z"/>
<linearGradient id="SVGID_12_" gradientUnits="userSpaceOnUse" x1="347.18" y1="373.43" x2="347.18" y2="434.43" gradientTransform="matrix(1 0 0 -1 0 758)">
	<stop  offset="0" style="stop-color:#000000;stop-opacity:0.12"/>
	<stop  offset="0.55" style="stop-color:#000000;stop-opacity:0.09"/>
	<stop  offset="1" style="stop-color:#000000;stop-opacity:0.02"/>
</linearGradient>
<rect x="245.18" y="323.57" class="st23" width="204" height="61"/>
<rect x="252.18" y="329.57" class="st24" width="190" height="44"/>
<linearGradient id="SVGID_13_" gradientUnits="userSpaceOnUse" x1="917.5087" y1="576.0511" x2="917.5087" y2="641.2026" gradientTransform="matrix(0.8447 0.5352 0.5352 -0.8447 -347.6254 227.0195)">
	<stop  offset="0" style="stop-color:#808080;stop-opacity:0.25"/>
	<stop  offset="0.54" style="stop-color:#808080;stop-opacity:0.12"/>
	<stop  offset="1" style="stop-color:#808080;stop-opacity:0.1"/>
</linearGradient>
<polygon class="st25" points="795.23,214.52 798.82,215.08 798.26,214.55 798.56,214.55 798.09,214.39 733,152.66 717.2,177.59 
	704.06,200.33 710.15,201.28 707.45,213.6 "/>
<polygon class="st26" points="719.93,178.89 707.93,199.7 795.93,214.03 739.25,174.56 "/>
<polygon class="st27" points="719.93,178.89 707.93,199.7 795.93,214.03 739.25,174.56 "/>
<polygon class="st7" points="734.38,156.09 795.93,214.03 719.93,178.89 "/>
<polygon class="st7" points="711.17,211.93 795.69,213.54 716.79,185.52 "/>
<path class="st3" d="M253.56,408.82L253.56,408.82c-10.45,16.49-32.25,21.44-48.8,11.09l-70.16-45.4
	c-16.49-10.45-21.44-32.25-11.09-48.8l0,0c10.43-16.51,32.24-21.48,48.8-11.14l70.16,45.4
	C258.99,370.42,263.95,392.26,253.56,408.82z"/>
</svg>
