<?xml version="1.0" encoding="utf-8"?>
<!-- Generator: Adobe Illustrator 23.0.1, SVG Export Plug-In . SVG Version: 6.00 Build 0)  -->
<svg version="1.1" id="afc017fa-71c4-4ea6-a0c5-62cd2df9d074"
	 xmlns="http://www.w3.org/2000/svg" xmlns:xlink="http://www.w3.org/1999/xlink" x="0px" y="0px" viewBox="0 0 885.36 482.8"
	 style="enable-background:new 0 0 885.36 482.8;" xml:space="preserve">
<style type="text/css">
	.st0{fill:#E6E6E6;}
	.st1{fill:#3F3D56;}
	.st2{fill:#FFFFFF;}
	.st3{fill:#8EBFDD;}
	.st4{fill:#FFB8B8;}
	.st5{fill:#2F2E41;}
</style>
<title>next_tasks</title>
<ellipse class="st0" cx="442.68" cy="472.52" rx="442.68" ry="10.28"/>
<path class="st1" d="M833.78,132.22H616.67v-1.14c0-1.84-1.49-3.34-3.34-3.34l0,0h-91.77c-1.84,0-3.34,1.49-3.34,3.34l0,0v1.14h-218
	c-8.11,0-14.69,6.57-14.69,14.69v297.28c0,8.11,6.57,14.69,14.69,14.69c0,0,0,0,0,0h533.55c8.11,0,14.69-6.57,14.69-14.69
	c0,0,0,0,0,0V146.91C848.47,138.8,841.89,132.22,833.78,132.22L833.78,132.22z"/>
<path class="st2" d="M311.91,157.4c-0.93,0.01-1.68,0.78-1.68,1.71V446.8c-0.01,0.93,0.74,1.7,1.68,1.71H822.1
	c0.93-0.01,1.68-0.78,1.68-1.71V159.11c0.01-0.93-0.74-1.7-1.68-1.71H311.91z"/>
<circle class="st3" cx="566.56" cy="144.75" r="5.37"/>
<path class="st1" d="M858.24,438.84h-51.09v-5.28c0-0.29-0.33-0.52-0.73-0.52H788.9c-0.4,0-0.73,0.23-0.73,0.52v5.28h-10.95v-5.28
	c0-0.29-0.33-0.52-0.73-0.52h-17.52c-0.4,0-0.73,0.23-0.73,0.52v5.28H747.3v-5.28c0-0.29-0.33-0.52-0.73-0.52h-17.52
	c-0.4,0-0.73,0.23-0.73,0.52v5.28h-10.95v-5.28c0-0.29-0.33-0.52-0.73-0.52h-17.52c-0.4,0-0.73,0.23-0.73,0.52v5.28h-10.95v-5.28
	c0-0.29-0.33-0.52-0.73-0.52h-17.52c-0.4,0-0.73,0.23-0.73,0.52v5.28h-10.95v-5.28c0-0.29-0.33-0.52-0.73-0.52h-17.52
	c-0.4,0-0.73,0.23-0.73,0.52v5.28h-10.95v-5.28c0-0.29-0.33-0.52-0.73-0.52H489.63c-0.4,0-0.73,0.23-0.73,0.52v5.28h-10.95v-5.28
	c0-0.29-0.33-0.52-0.73-0.52h-17.52c-0.4,0-0.73,0.23-0.73,0.52v5.28h-10.95v-5.28c0-0.29-0.33-0.52-0.73-0.52h-17.52
	c-0.4,0-0.73,0.23-0.73,0.52v5.28H418.1v-5.28c0-0.29-0.33-0.52-0.73-0.52h-17.52c-0.4,0-0.73,0.23-0.73,0.52v5.28h-10.95v-5.28
	c0-0.29-0.33-0.52-0.73-0.52h-17.52c-0.4,0-0.73,0.23-0.73,0.52v5.28h-10.95v-5.28c0-0.29-0.33-0.52-0.73-0.52H340
	c-0.4,0-0.73,0.23-0.73,0.52v5.28h-10.95v-5.28c0-0.29-0.33-0.52-0.73-0.52h-17.52c-0.4,0-0.73,0.23-0.73,0.52v5.28h-33.58
	c-9.67,0-17.52,5.64-17.52,12.59v5.69c0,6.95,7.84,12.59,17.52,12.59h582.48c9.68,0,17.52-5.64,17.52-12.59v-5.69
	C875.76,444.48,867.92,438.84,858.24,438.84z"/>
<path class="st0" d="M577.07,213.84h186.42c1.97,0,3.56,1.59,3.56,3.56v179.3c0,1.97-1.59,3.56-3.56,3.56H577.07
	c-1.97,0-3.56-1.59-3.56-3.56V217.4C573.51,215.43,575.1,213.84,577.07,213.84z"/>
<path class="st4" d="M171.11,45.59c0.41,8.36-0.06,16.75-1.39,25.02c0,0-9.73,22.24,1.39,31.97s31.97-29.19,31.97-29.19
	c-1.44-8.63-2.27-16.75,0-22.24L171.11,45.59z"/>
<path class="st4" d="M186.4,318v30.58c0,0-4.17,56.98,0,70.88l-1.39,26.41h15.29l4.17-31.97c0,0,12.51-40.31,8.34-65.32l2.78-30.58
	H186.4z"/>
<path class="st4" d="M164.16,318v30.58c0,0,4.17,56.98,0,70.88l1.39,26.41h-15.29l-4.17-31.97c0,0-12.51-40.31-8.34-65.32
	L134.98,318H164.16z"/>
<path class="st5" d="M128.72,203.34c0,0-8.34,52.81-2.78,83.39s5.56,40.31,5.56,40.31l34.75-1.39l9.73-56.98l8.34,58.37l41.7-6.95
	c0,0,0-44.48,1.39-54.2s1.39-65.32,1.39-65.32L128.72,203.34z"/>
<path class="st5" d="M203.08,445.86c0,0-15.29-9.73-22.24,0v16.68c0,0-5.56,12.51,13.9,9.73s12.51-12.51,12.51-12.51L203.08,445.86z
	"/>
<path class="st5" d="M147.49,445.86c0,0,15.29-9.73,22.24,0v16.68c0,0,5.56,12.51-13.9,9.73s-12.51-12.51-12.51-12.51L147.49,445.86
	z"/>
<circle class="st4" cx="189.18" cy="37.25" r="22.24"/>
<path class="st3" d="M179.45,90.06l-9.56-22.49l-9.9,4.43l-12.51,72.27l1.39,69.49c0,0,63.93-2.78,72.27,1.39
	s-9.73-136.21-9.73-136.21l-8.34-10.4L179.45,90.06z"/>
<path class="st5" d="M171.4,59.49c0,0-21.14,5.56-21.14,13.9c0,0-20.85,4.17-20.85,8.34s-1.39,109.8-1.39,109.8
	s-12.51,23.63-2.78,43.09l-1.39,11.12l27.8,2.78l19.46-170.95L171.4,59.49z"/>
<path class="st5" d="M201.4,59.49c0,0,21.14,5.56,21.14,13.9c0,0,20.85,4.17,20.85,8.34s1.39,109.8,1.39,109.8
	s12.51,23.63,2.78,43.09l1.39,11.12l-27.8,2.78L201.69,77.55L201.4,59.49z"/>
<path class="st5" d="M207.25,8.06c0,0,1.39-5.56-5.56-2.78c0,0-8.34-9.73-16.68-2.78c0,0-16.68-2.78-16.68,11.12
	s-0.79,18.49-0.79,18.49s4.96-12.93,14.68-11.54c5.95,0.85,9.3,0.14,11-0.54c1.84-0.79,3.91-0.89,5.82-0.28
	c2.43,0.82,4.39,2.63,5.41,4.98c0.86,1.97,1.86,3.88,3.01,5.7c1.62,2.42,2.93,5.04,3.91,7.78l0,0l2.8-16.26
	c0,0,1.39-8.34-2.78-11.12C211.42,10.84,212.81,6.67,207.25,8.06z"/>
<rect x="255.25" y="244.93" class="st3" width="374.29" height="121.94"/>
<path class="st4" d="M103.71,226.96c0,0-8.34,31.97,4.17,29.19c12.51-2.78,9.73-30.58,9.73-30.58L103.71,226.96z"/>
<path class="st4" d="M269.1,226.96c0,0,8.34,31.97-4.17,29.19c-12.51-2.78-9.73-30.58-9.73-30.58L269.1,226.96z"/>
<path class="st5" d="M136.37,81.72l-3.84-2.99c0,0-4.5,0.21-5.89,2.99S103.01,154,103.01,154s-6.95,36.14-2.78,58.37l1.39,16.68
	h19.46l-1.39-26.41l13.9-52.81L136.37,81.72z"/>
<path class="st5" d="M236.44,81.72l3.84-2.99c0,0,4.5,0.21,5.89,2.99S269.79,154,269.79,154s6.95,36.14,2.78,58.37l-1.39,16.68
	h-19.46l1.39-26.41l-13.9-52.81L236.44,81.72z"/>
<rect x="327.88" y="260.31" class="st2" width="21.21" height="21.21"/>
<rect x="386.2" y="269.85" class="st2" width="170.71" height="2.12"/>
<rect x="327.88" y="295.3" class="st2" width="21.21" height="21.21"/>
<rect x="386.2" y="304.84" class="st2" width="170.71" height="2.12"/>
<rect x="327.88" y="330.29" class="st2" width="21.21" height="21.21"/>
<rect x="386.2" y="339.83" class="st2" width="170.71" height="2.12"/>
</svg>
